<?xml version="1.0" encoding="UTF-8"?>
<svg version="1.1" xmlns="http://www.w3.org/2000/svg" width="512" height="512">
<path d="M0 0 C1.228929 -0.00538554 2.457858 -0.01077108 3.72402728 -0.01631981 C7.11869109 -0.02811792 10.51286164 -0.02654387 13.90750551 -0.019153 C17.57496173 -0.01441255 21.24236589 -0.02693894 24.9098053 -0.03717041 C32.08834946 -0.05434688 39.26680604 -0.05520079 46.44536541 -0.04995751 C52.28176859 -0.04591225 58.11814593 -0.04736358 63.95454788 -0.05270576 C64.78596047 -0.05345419 65.61737305 -0.05420261 66.47397996 -0.05497371 C68.16312738 -0.05650523 69.85227479 -0.05804357 71.5414222 -0.05958868 C87.37414825 -0.07330967 103.20682486 -0.06787896 119.03954978 -0.05640347 C133.51412072 -0.04647254 147.9885638 -0.05941002 162.46311502 -0.08333766 C177.3366531 -0.10773901 192.21013165 -0.11733392 207.08368933 -0.11068493 C215.42962399 -0.10719488 223.77546035 -0.10941057 232.12137985 -0.12693596 C239.22642018 -0.14167095 246.33129298 -0.14227655 253.43633007 -0.12486505 C257.05890611 -0.11636308 260.68118306 -0.11418546 264.30374336 -0.1295166 C268.23674631 -0.14595501 272.1692897 -0.13119255 276.10229492 -0.11352539 C277.80718002 -0.1279329 277.80718002 -0.1279329 279.54650724 -0.14263147 C292.1102404 -0.02668736 300.78099793 4.64019285 309.6781311 13.38768005 C318.75034527 24.49220026 319.85835439 33.16040777 319.8656311 47.26268005 C319.8778772 48.50404724 319.89012329 49.74541443 319.90274048 51.0243988 C319.92195404 63.05208984 318.09108553 72.59540115 309.56484985 81.6259613 C296.58773074 93.52725707 283.58812892 96.54228061 266.33863831 96.52812195 C265.20322414 96.53109307 264.06780998 96.53406419 262.89798933 96.53712535 C259.0967498 96.54579073 255.29554184 96.54731878 251.49429321 96.54881287 C248.76724056 96.55290673 246.04019119 96.55844718 243.31314087 96.56385803 C235.90582844 96.577413 228.49852145 96.58346178 221.09119868 96.58786869 C216.46091457 96.59063618 211.83063252 96.59487447 207.20034981 96.59937286 C194.36601232 96.61156232 181.53167649 96.62186195 168.69733334 96.62524796 C167.87663751 96.62546752 167.05594169 96.62568709 166.2103763 96.62591331 C165.38777894 96.62613158 164.56518158 96.62634986 163.71765703 96.62657475 C162.05091727 96.62701821 160.38417751 96.62746478 158.71743774 96.62791443 C157.47731175 96.62824657 157.47731175 96.62824657 156.2121327 96.62858543 C142.82660089 96.63253043 129.44112361 96.64997679 116.05561285 96.67327395 C102.29403047 96.69703116 88.53247539 96.70945181 74.77087218 96.71061587 C67.05190372 96.71153023 59.33300633 96.71722198 51.61405754 96.73543549 C45.03907435 96.75089564 38.46418418 96.7559223 31.88918626 96.74769738 C28.53952526 96.7438115 25.1902023 96.74627674 21.84053993 96.75875473 C0.74023073 96.83271811 -17.23901293 96.63234157 -33.3218689 81.38768005 C-41.87449621 71.29750176 -43.82786244 62.512593 -43.71298218 49.55174255 C-43.69690289 47.39224577 -43.71288466 45.23461987 -43.73202515 43.07518005 C-43.7557896 29.58320158 -40.38828433 21.54479208 -31.3218689 11.38768005 C-21.44805278 2.63429697 -12.94323274 -0.06817345 0 0 Z M0.3031311 38.95018005 C-1.87640295 43.56073285 -2.12935553 47.37147521 -1.3218689 52.38768005 C0.84111948 56.79376748 3.07493589 59.58642975 7.6781311 61.38768005 C12.66381755 62.06412997 16.5051307 61.92086206 21.1156311 59.82518005 C24.73040932 56.38673248 26.60570292 53.20272193 26.73672485 48.1103363 C26.38361404 43.59502571 25.68700866 39.91532961 22.6781311 36.38768005 C14.98772883 31.20112968 6.62278641 32.13160459 0.3031311 38.95018005 Z " fill="#323332" transform="translate(122.32186889648438,35.61231994628906)"/>
<path d="M0 0 C1.14473341 -0.00453111 2.28946682 -0.00906223 3.46888912 -0.01373065 C7.28381566 -0.02633557 11.09859871 -0.02475677 14.9135437 -0.02310181 C17.65750156 -0.02800605 20.40144952 -0.03583969 23.145401 -0.04345703 C29.81364871 -0.06001882 36.48186104 -0.06556441 43.1501276 -0.06668179 C48.57548154 -0.06763467 54.00082389 -0.07175693 59.42617416 -0.07808304 C74.83589344 -0.09568324 90.24558494 -0.10492396 105.65531434 -0.10342209 C106.48480249 -0.10334218 107.31429064 -0.10326227 108.16891479 -0.10317993 C109.41468095 -0.10305729 109.41468095 -0.10305729 110.68561409 -0.10293217 C124.13429231 -0.10211989 137.58285837 -0.12124612 151.03150417 -0.14945666 C164.86777781 -0.17824933 178.70399687 -0.19199342 192.5403012 -0.19026911 C200.29731288 -0.18960735 208.05420701 -0.19500515 215.81119156 -0.21662521 C222.41754496 -0.2349214 229.02372754 -0.23911577 235.63009544 -0.22560637 C238.99428337 -0.2191184 242.35787975 -0.22102011 245.72207832 -0.23631287 C266.08391744 -0.32283249 284.35024062 -0.07541959 300.04977417 14.51742554 C307.60363214 22.44563399 310.35850226 30.67630764 310.37008667 41.51351929 C310.37137573 42.68076538 310.37266479 43.84801147 310.37399292 45.05062866 C310.37012573 46.25654663 310.36625854 47.4624646 310.36227417 48.70492554 C310.36614136 49.90697632 310.37000854 51.1090271 310.37399292 52.34750366 C310.35638764 68.30668731 310.35638764 68.30668731 305.92477417 74.89242554 C305.33051636 75.79219116 304.73625854 76.69195679 304.12399292 77.61898804 C300.52434205 82.6719141 297.45396536 86.11018156 292.11227417 89.39242554 C291.05782104 90.05500366 290.00336792 90.71758179 288.91696167 91.40023804 C280.60958294 95.92811258 272.30727319 96.7058747 262.99206543 96.65510559 C261.79550713 96.66049113 260.59894883 96.66587667 259.36613119 96.6714254 C256.07112254 96.68319471 252.77644163 96.6816631 249.48143053 96.67425859 C245.91758452 96.66950731 242.35379151 96.68205403 238.78996277 96.692276 C231.81823405 96.70943128 224.84659558 96.71031081 217.87485124 96.7050631 C212.20537022 96.70101395 206.53591577 96.70247378 200.866436 96.70781136 C200.05807474 96.70855978 199.24971347 96.7093082 198.4168564 96.7100793 C196.77441951 96.71161085 195.13198263 96.7131492 193.48954575 96.71469427 C178.10312161 96.72840755 162.71674838 96.72298994 147.33032541 96.71150906 C133.27108899 96.70157854 119.21198421 96.71451627 105.15276809 96.73844325 C90.69726125 96.76285825 76.24181566 96.77243618 61.78628862 96.76579052 C53.67841601 96.76230355 45.57064459 96.76449576 37.46278763 96.78204155 C30.56060314 96.79679363 23.65859111 96.79735989 16.7564099 96.77997064 C13.23888293 96.77148274 9.72166365 96.7692563 6.20415306 96.78462219 C2.38129734 96.7978504 -1.44072925 96.78626655 -5.2635498 96.76863098 C-6.91095864 96.78303849 -6.91095864 96.78303849 -8.59164846 96.79773706 C-21.88308884 96.67211012 -32.69593086 91.98231702 -42.45022583 83.07992554 C-51.5993364 73.5256096 -52.9682744 63.74854912 -53.00296021 51.16049194 C-53.01263125 49.03818035 -53.04366336 46.91685252 -53.07522583 44.79476929 C-53.13174102 37.64804733 -52.96224448 31.7424609 -49.76272583 25.26742554 C-49.34893677 24.38055054 -48.93514771 23.49367554 -48.50881958 22.57992554 C-42.46863762 11.90593234 -33.36949995 5.86664155 -21.76272583 2.26742554 C-14.46378766 0.42984708 -7.50487264 -0.02206761 0 0 Z M-9.47366333 41.10336304 C-11.9001026 45.17683986 -11.35297872 49.69130759 -10.76272583 54.26742554 C-8.97321948 58.1217469 -7.49938298 59.7651593 -4.01272583 62.14242554 C0.95870142 63.8633042 5.12676535 64.25232965 10.04977417 61.95492554 C14.2347791 58.72649316 16.03091478 56.59551282 17.23727417 51.26742554 C17.35000886 45.61941763 15.97852406 41.6153646 12.23727417 37.26742554 C3.98393702 31.88481435 -3.06926227 34.23106053 -9.47366333 41.10336304 Z " fill="#323332" transform="translate(131.76272583007813,262.7325744628906)"/>
<path d="M0 0 C1.13293031 -0.00311998 2.26586062 -0.00623996 3.43312216 -0.00945449 C7.19590692 -0.01737546 10.95852776 -0.01113392 14.72131348 -0.00482178 C17.43264598 -0.00643492 20.14397171 -0.01102484 22.8553009 -0.01544189 C29.43504551 -0.02430132 36.0147443 -0.02242934 42.59449065 -0.01661661 C47.94545911 -0.01208648 53.29641481 -0.01149304 58.64738464 -0.01366425 C59.41106915 -0.01397071 60.17475366 -0.01427718 60.96158013 -0.01459293 C62.51334195 -0.01523243 64.06510376 -0.01588086 65.61686558 -0.01653811 C80.14297603 -0.0222313 94.66906118 -0.01569942 109.19516748 -0.00493738 C121.63960511 0.00399721 134.08400542 0.00244488 146.52844238 -0.0067749 C161.0051537 -0.01749544 175.48184287 -0.02168207 189.95855761 -0.01555037 C191.50437959 -0.01491333 193.05020157 -0.01428458 194.59602356 -0.01366425 C195.73666878 -0.01320142 195.73666878 -0.01320142 196.90035734 -0.01272924 C202.24039564 -0.01100765 207.58041982 -0.01390582 212.92045593 -0.01862335 C219.43461453 -0.02425204 225.94872497 -0.02267414 232.46287811 -0.01206186 C235.78188035 -0.00683175 239.10073666 -0.00579246 242.41974831 -0.01136017 C246.02771394 -0.01685315 249.63545664 -0.00993595 253.2434082 0 C254.27806135 -0.00446144 255.31271449 -0.00892289 256.37872076 -0.01351953 C271.69545661 0.06787944 286.90521498 3.08045322 298.1217041 14.25396729 C307.09136416 25.38871771 308.31311939 33.91434451 308.3717041 48.00396729 C308.4026416 49.84088135 308.4026416 49.84088135 308.4342041 51.71490479 C308.48744375 64.14636346 306.07278182 74.10140906 297.23498535 83.19537354 C286.24003197 93.1966769 275.6734851 96.72229288 260.87649536 96.64164734 C259.67993706 96.64703288 258.48337876 96.65241841 257.25056112 96.65796715 C253.95555247 96.66973646 250.66087156 96.66820485 247.36586046 96.66080034 C243.80201445 96.65604906 240.23822144 96.66859577 236.6743927 96.67881775 C229.70266398 96.69597303 222.73102551 96.69685255 215.75928117 96.69160485 C210.08980015 96.6875557 204.4203457 96.68901553 198.75086594 96.6943531 C197.94250467 96.69510153 197.1341434 96.69584995 196.30128633 96.69662105 C194.65884944 96.6981526 193.01641256 96.69969095 191.37397568 96.70123602 C175.98755154 96.7149493 160.60117831 96.70953169 145.21475534 96.6980508 C131.15551892 96.68812029 117.09641414 96.70105802 103.03719802 96.724985 C88.58169118 96.7494 74.12624559 96.75897793 59.67071855 96.75233227 C51.56284594 96.7488453 43.45507452 96.75103751 35.34721756 96.7685833 C28.44503307 96.78333538 21.54302104 96.78390164 14.64083983 96.76651239 C11.12331286 96.75802449 7.60609358 96.75579805 4.08858299 96.77116394 C0.26572727 96.78439215 -3.55629932 96.7728083 -7.37911987 96.75517273 C-9.02652871 96.76958024 -9.02652871 96.76958024 -10.70721853 96.78427881 C-25.15718396 96.64770181 -35.53374249 91.2298858 -45.8236084 81.39459229 C-54.1707074 72.25053408 -55.0856783 63.06956362 -55.11853027 51.14703369 C-55.12820132 49.0247221 -55.15923342 46.90339427 -55.1907959 44.78131104 C-55.29363299 31.88590095 -52.09210007 21.63392434 -42.84313965 12.17193604 C-30.53853362 1.92181958 -15.49971236 -0.06683505 0 0 Z M-11.2532959 39.75396729 C-13.52740649 44.65205164 -13.80169093 48.94247278 -12.8782959 54.25396729 C-10.90361437 58.19552528 -7.92887567 60.59960961 -3.8782959 62.25396729 C1.00111376 62.94642476 5.02907744 62.73074983 9.5592041 60.75396729 C13.30776411 57.09683556 15.03454707 53.40905168 15.18029785 48.13287354 C14.80157708 43.87025037 13.85039038 40.54720935 11.1217041 37.25396729 C3.42510465 32.06323742 -4.86414812 33.02854857 -11.2532959 39.75396729 Z " fill="#323332" transform="translate(133.8782958984375,148.74603271484375)"/>
<path d="M0 0 C1.07507813 -0.00128906 2.15015625 -0.00257813 3.2578125 -0.00390625 C4.38960937 -0.00003906 5.52140625 0.00382812 6.6875 0.0078125 C7.81929688 0.00394531 8.95109375 0.00007813 10.1171875 -0.00390625 C11.19226563 -0.00261719 12.26734375 -0.00132812 13.375 0 C14.36886719 0.00112793 15.36273438 0.00225586 16.38671875 0.00341797 C18.6875 0.1328125 18.6875 0.1328125 19.6875 1.1328125 C19.77624135 4.23532451 19.80268455 7.3154937 19.78515625 10.41796875 C19.7837413 11.34878769 19.78232635 12.27960663 19.78086853 13.2386322 C19.77525172 16.22422441 19.7626964 19.20974279 19.75 22.1953125 C19.74498716 24.21419163 19.74042388 26.23307193 19.73632812 28.25195312 C19.72527683 33.21226822 19.70800095 38.17252782 19.6875 43.1328125 C20.80721191 43.1421582 21.92692383 43.15150391 23.08056641 43.16113281 C27.25186316 43.20113411 31.42243022 43.26692055 35.59326172 43.34033203 C37.39524939 43.36848303 39.19735919 43.38972672 40.99951172 43.40380859 C43.59666198 43.42532005 46.19235295 43.47201007 48.7890625 43.5234375 C49.5892984 43.52466614 50.3895343 43.52589478 51.21401978 43.52716064 C56.45369197 43.66304692 59.57785231 44.5941879 63.6875 48.1328125 C66.42383736 51.66251995 66.01068249 55.90083583 66.0234375 60.1875 C66.0334227 61.35625168 66.0334227 61.35625168 66.04360962 62.5486145 C66.05371741 64.19433234 66.05842722 65.840091 66.05810547 67.48583984 C66.06247342 69.99255573 66.09879517 72.49750228 66.13671875 75.00390625 C66.14258856 76.60676485 66.14655685 78.20963176 66.1484375 79.8125 C66.16280853 80.55644012 66.17717957 81.30038025 66.19198608 82.06686401 C66.13786665 88.28847261 64.00145699 91.81885551 59.6875 96.1328125 C57.79992962 96.39566803 57.79992962 96.39566803 55.45646667 96.41369629 C54.56904282 96.42511658 53.68161896 96.43653687 52.76730347 96.44830322 C51.79117096 96.45053894 50.81503845 96.45277466 49.80932617 96.45507812 C48.27011757 96.46997284 48.27011757 96.46997284 46.69981384 96.48516846 C43.29333853 96.51446177 39.8870495 96.52802402 36.48046875 96.5390625 C34.11875908 96.55056169 31.75704948 96.5620772 29.39533997 96.5736084 C24.43794889 96.59464288 19.48062281 96.60631856 14.52319336 96.61328125 C8.16728169 96.62425145 1.81222685 96.67230027 -4.54341602 96.72922516 C-9.42386898 96.7664541 -14.30411513 96.7768878 -19.1846981 96.779953 C-21.52791718 96.78601306 -23.87113231 96.80209394 -26.21421242 96.82832336 C-29.49218694 96.86239731 -32.76806333 96.85869836 -36.04614258 96.84570312 C-37.01620239 96.86413269 -37.98626221 96.88256226 -38.98571777 96.90155029 C-45.41675435 96.82159474 -45.41675435 96.82159474 -48.02026939 94.81962585 C-52.11343481 90.02508024 -52.49184765 86.32331108 -52.55078125 80.2734375 C-52.558853 79.49143982 -52.56692474 78.70944214 -52.57524109 77.90374756 C-52.5890822 76.24607561 -52.59980424 74.58837515 -52.60766602 72.93066406 C-52.62483991 70.40634371 -52.66871865 67.88334664 -52.71289062 65.359375 C-52.7230213 63.74740545 -52.73153623 62.13542477 -52.73828125 60.5234375 C-52.75578934 59.77322327 -52.77329742 59.02300903 -52.79133606 58.25006104 C-52.77004397 53.05479059 -51.68328644 50.07545191 -48.3125 46.1328125 C-44.67985685 43.26017569 -40.04553494 43.78196939 -35.609375 43.71875 C-34.77158508 43.69938385 -33.93379517 43.6800177 -33.07061768 43.6600647 C-30.40134787 43.60040526 -27.73203461 43.55393837 -25.0625 43.5078125 C-23.24998146 43.46962014 -21.43748082 43.43056768 -19.625 43.390625 C-15.18764585 43.29471498 -10.75020675 43.2106337 -6.3125 43.1328125 C-6.31773682 41.86574463 -6.32297363 40.59867676 -6.32836914 39.29321289 C-6.34641514 34.6099518 -6.35793053 29.92669379 -6.36743164 25.2434082 C-6.37247278 23.21312952 -6.37930557 21.18285448 -6.38793945 19.15258789 C-6.40001467 16.24103903 -6.40573034 13.329538 -6.41015625 10.41796875 C-6.41531754 9.5044313 -6.42047882 8.59089386 -6.42579651 7.64967346 C-6.42599168 5.47705823 -6.37461805 3.30453954 -6.3125 1.1328125 C-4.59682208 -0.58286542 -2.33877265 0.00265425 0 0 Z " fill="#323332" transform="translate(249.3125,375.8671875)"/>
<path d="M0 0 C16.47239627 -0.06772761 32.94467367 -0.1229879 49.41717052 -0.15543652 C57.06568068 -0.1709036 64.71409816 -0.19199003 72.36254883 -0.22631836 C79.02915726 -0.25622564 85.69569857 -0.27557616 92.36237222 -0.28226548 C95.89215517 -0.28617552 99.42174612 -0.29536114 102.95146751 -0.31719017 C106.89240485 -0.34136448 110.83315456 -0.34196913 114.77416992 -0.34057617 C115.94373734 -0.351362 117.11330475 -0.36214783 118.3183136 -0.3732605 C119.39378448 -0.36913651 120.46925537 -0.36501251 121.57731628 -0.36076355 C122.50924899 -0.36352893 123.4411817 -0.36629431 124.40135479 -0.36914349 C128.20034251 0.17051139 130.72867283 2.07310728 133.7734375 4.29296875 C135.64626339 6.89941752 135.54452495 9.14105148 135.625 12.3125 C135.67914063 13.42238281 135.73328125 14.53226562 135.7890625 15.67578125 C134.81897191 19.76264806 133.49779841 21.13968751 130.30085564 23.73532486 C125.67170112 26.27975944 120.61029544 25.77605606 115.45532227 25.68115234 C114.20584305 25.6820285 112.95636383 25.68290466 111.66902161 25.68380737 C108.25958812 25.68035457 104.85236167 25.65036808 101.44331861 25.60836363 C97.87462763 25.57073541 94.30590403 25.56732183 90.73704529 25.56021118 C83.98671372 25.54159751 77.23696848 25.49240868 70.48689455 25.43211424 C62.79893254 25.36493985 55.11094183 25.33203281 47.42275918 25.30194163 C31.61477591 25.23930543 15.80759979 25.12931773 0 25 C0 16.75 0 8.5 0 0 Z " fill="#323332" transform="translate(330,433)"/>
<path d="M0 0 C1.60702034 -0.002062 1.60702034 -0.002062 3.24650574 -0.00416565 C4.42685898 -0.00057037 5.60721222 0.0030249 6.82333374 0.00672913 C8.06232925 0.0065831 9.30132477 0.00643707 10.5778656 0.00628662 C13.98055486 0.00686499 17.38318386 0.01188924 20.78586245 0.01886058 C24.33996689 0.02510084 27.89407208 0.02569845 31.44818115 0.02688599 C38.18069771 0.02999731 44.91319807 0.03820804 51.64570749 0.04823548 C59.30945104 0.05940276 66.97319535 0.06490862 74.63694501 0.06993091 C90.40400093 0.08039081 106.17103454 0.09873383 121.93807983 0.12025452 C121.93807983 8.37025452 121.93807983 16.62025452 121.93807983 25.12025452 C105.36982274 25.25579497 88.80204013 25.36627861 72.23338223 25.43112755 C64.53993798 25.4620409 56.84686312 25.50417235 49.15365601 25.57289124 C42.44674063 25.6327715 35.74009283 25.67142201 29.03291756 25.68478549 C25.48269746 25.69259499 21.93324268 25.71089393 18.38326836 25.75463486 C14.41628762 25.8031156 10.45004956 25.8041888 6.48275757 25.80140686 C5.31102997 25.82297852 4.13930237 25.84455017 2.93206787 25.86677551 C-3.42715157 25.81850651 -7.24873223 25.24644288 -11.88433743 20.72657204 C-14.53678934 17.1084144 -13.9169708 13.38701909 -13.69863892 9.13197327 C-13.04182107 6.02518458 -12.5748307 4.88081623 -10.18692017 2.87025452 C-6.26029692 0.6713455 -4.45993289 -0.00439836 0 0 Z " fill="#323332" transform="translate(60.061920166015625,432.87974548339844)"/>
</svg>
