<?xml version="1.0" encoding="UTF-8"?>
<svg version="1.1" xmlns="http://www.w3.org/2000/svg" width="1600" height="1600">
<path d="M0 0 C1.51752132 -0.00269646 3.03504129 -0.00626603 4.55255875 -0.01062447 C8.71953164 -0.02005844 12.88641684 -0.01708962 17.05339397 -0.01206893 C21.58807672 -0.00879754 26.12274091 -0.0170888 30.65741771 -0.02388728 C38.60425031 -0.03418967 46.55105854 -0.03703065 54.49789715 -0.03497505 C66.31545065 -0.03192569 78.13297718 -0.04024765 89.95052544 -0.0507243 C112.28533728 -0.0700715 134.62013993 -0.0756928 156.95495916 -0.07683842 C174.20333879 -0.07775736 191.45171481 -0.08187326 208.70009327 -0.08823967 C213.66429724 -0.09003475 218.62850121 -0.09181438 223.59270519 -0.09358943 C224.82681057 -0.09403152 226.06091595 -0.09447362 227.33241846 -0.09492911 C262.04850863 -0.10723855 296.76459755 -0.11513014 331.48069 -0.11424255 C332.78971532 -0.1142114 334.09874064 -0.11418024 335.44743339 -0.11414814 C342.08217242 -0.11398192 348.71691145 -0.11378384 355.35165048 -0.11357872 C356.66934127 -0.11353883 357.98703207 -0.11349894 359.34465288 -0.11345784 C362.00934563 -0.11337697 364.67403837 -0.11329337 367.33873112 -0.11320706 C408.79477635 -0.11193526 450.25078839 -0.1269931 491.7068243 -0.15435219 C538.27922588 -0.18507516 584.85160597 -0.20228454 631.42401832 -0.20042574 C636.39042278 -0.20027648 641.35682724 -0.20017907 646.3232317 -0.20011711 C647.54609183 -0.2000938 648.76895196 -0.20007049 650.02886846 -0.20004648 C669.70582181 -0.19998494 689.38274675 -0.21275542 709.05969165 -0.22998164 C728.83716095 -0.2469377 748.6145887 -0.24891216 768.39206124 -0.235763 C780.1396051 -0.22837361 791.88702271 -0.23203154 803.63455319 -0.25164768 C811.48648071 -0.2636504 819.33831683 -0.26105331 827.19024016 -0.24670668 C831.66085277 -0.23894621 836.13122113 -0.23738459 840.60181648 -0.25362138 C844.67821348 -0.26829635 848.75416535 -0.26417074 852.83054331 -0.24577365 C854.28704343 -0.24236357 855.74357943 -0.24547984 857.20004278 -0.25637607 C882.07576295 -0.4298411 904.02005054 8.36343508 922.98001766 24.25726891 C923.65806454 24.78836266 924.33611141 25.31945641 925.03470516 25.86664391 C934.74416906 33.74339775 940.94711217 43.769362 946.5634222 54.74962425 C947.08311474 55.75604003 947.60280729 56.76245581 948.13824809 57.79936904 C953.79870017 68.78830588 959.35530028 79.82970042 964.89554501 90.87958336 C966.03029899 93.13951783 967.16518045 95.3993883 968.30017757 97.65920067 C971.97511345 104.97814225 975.64593701 112.29914167 979.31595516 119.62055016 C979.95051069 120.88633807 980.58506921 122.15212447 981.21963072 123.41790938 C987.1582984 135.26431383 993.09523301 147.11158595 999.02828693 158.96080303 C1000.3909163 161.6821144 1001.75356807 164.40341456 1003.11624813 167.12470055 C1003.45479956 167.80079505 1003.793351 168.47688955 1004.14216156 169.17347177 C1009.63912388 180.150351 1015.14572635 191.12236542 1020.65615432 202.09248994 C1026.34502715 213.41829833 1032.02470592 224.74868072 1037.69570792 236.08344811 C1040.86760387 242.42260596 1044.04340014 248.75973949 1047.22969341 255.0916748 C1050.22358485 261.04129702 1053.20497443 266.99702194 1056.1783247 272.95694351 C1057.26491843 275.13007738 1058.35555451 277.30119597 1059.45073605 279.47001457 C1065.66446446 291.78180148 1071.37334962 303.91136 1074.98001766 317.25726891 C1075.47931868 319.09215402 1075.47931868 319.09215402 1075.98870659 320.96410751 C1078.94162752 333.98736497 1078.40912589 347.31834255 1078.3840704 360.59882164 C1078.3881433 363.34204559 1078.39664931 366.08525218 1078.40486813 368.82846642 C1078.4219587 375.47218453 1078.42291666 382.11580767 1078.41765522 388.75954204 C1078.41359445 394.16520235 1078.41507956 399.57083483 1078.42040348 404.97649384 C1078.4211519 405.74929422 1078.42190032 406.5220946 1078.42267143 407.31831317 C1078.42420308 408.8888282 1078.42574143 410.45934322 1078.42728639 412.02985824 C1078.44097586 426.71733612 1078.43559855 441.40476055 1078.42410118 456.09223718 C1078.41416972 469.49459763 1078.4271143 482.89682 1078.45103537 496.29915916 C1078.47548487 510.10286358 1078.48502009 523.90650384 1078.47838265 537.71022946 C1078.47490375 545.44314312 1078.47703415 553.17595066 1078.49463367 560.90884781 C1078.50942902 567.49051592 1078.50989606 574.07200314 1078.49256276 580.65366798 C1078.48411049 584.00383794 1078.48396878 587.35342378 1078.49721432 590.7036171 C1078.6106429 621.78218813 1071.44991963 648.73152266 1048.98001766 671.38226891 C1047.98520886 672.34598993 1046.98732666 673.30662104 1045.98001766 674.25726891 C1047.39148882 677.51010092 1049.07329139 679.48681439 1051.66751766 681.88226891 C1066.3429744 696.32017329 1077.31237 718.99321561 1078.11423874 739.72796154 C1078.11851222 741.01298408 1078.1227857 742.29800661 1078.12718868 743.62196922 C1078.13086537 744.34197347 1078.13454206 745.06197772 1078.13833016 745.80380028 C1078.14930231 748.20537077 1078.15319987 750.60689789 1078.15701962 753.00848961 C1078.16328945 754.73546547 1078.16993671 756.46244 1078.17693233 758.18941307 C1078.19792377 763.85394931 1078.20833425 769.51848564 1078.21829891 775.18305016 C1078.22234914 777.13969181 1078.22646614 779.09633333 1078.23064899 781.0529747 C1078.2496946 790.2532374 1078.26392359 799.45349213 1078.27226096 808.65377074 C1078.2820132 819.2381401 1078.30828264 829.82229921 1078.34876186 840.40659457 C1078.37904348 848.60903823 1078.39374144 856.81142207 1078.39704198 865.01392049 C1078.39937989 869.90216715 1078.40817406 874.79018907 1078.43350315 879.67837524 C1078.45699888 884.28727225 1078.46093194 888.89580001 1078.45074177 893.50474167 C1078.45025138 895.18274104 1078.45642234 896.86075994 1078.47029781 898.53870201 C1078.67796004 925.17356584 1069.40880234 949.95560762 1050.92142391 969.42523766 C1049.29715046 971.06258373 1047.65721668 972.67441233 1045.98001766 974.25726891 C1047.39148882 977.51010092 1049.07329139 979.48681439 1051.66751766 981.88226891 C1066.34214169 996.31935405 1077.31176627 1018.99151157 1078.11423874 1039.72516823 C1078.11851222 1041.00889194 1078.1227857 1042.29261566 1078.12718868 1043.6152401 C1078.13270371 1044.69418812 1078.13270371 1044.69418812 1078.13833016 1045.79493308 C1078.1493023 1048.19416959 1078.15319988 1050.5933627 1078.15701962 1052.99262047 C1078.16328951 1054.71797381 1078.16993677 1056.44332582 1078.17693233 1058.16867638 C1078.19792509 1063.82840608 1078.20833515 1069.48813589 1078.21829891 1075.14789391 C1078.22234925 1077.1032748 1078.22646626 1079.05865556 1078.23064899 1081.01403618 C1078.24969578 1090.20949551 1078.26392388 1099.40494688 1078.27226096 1108.60042214 C1078.28201023 1119.17629155 1078.30827135 1129.75195037 1078.34876186 1140.32774568 C1078.3790564 1148.52510946 1078.39374269 1156.72241337 1078.39704198 1164.91983199 C1078.39937865 1169.80419828 1078.40815614 1174.68833952 1078.43350315 1179.57264519 C1078.45702134 1184.17908299 1078.46092321 1188.78515139 1078.45074177 1193.39163399 C1078.45025189 1195.06760078 1078.45640702 1196.74358724 1078.47029781 1198.41949654 C1078.69354415 1226.99028831 1068.81659331 1251.53038521 1048.98001766 1272.25726891 C1029.87044723 1291.28641706 1005.12918337 1300.49181072 978.44116274 1300.52699429 C976.64756713 1300.52301946 974.85397192 1300.51886057 973.06037712 1300.51453781 C971.12927973 1300.51723324 969.19818339 1300.52080222 967.26708904 1300.52516228 C961.95646705 1300.53461008 956.64591374 1300.53162291 951.33528839 1300.52660674 C945.55911256 1300.52333895 939.78295137 1300.53162362 934.00678021 1300.53842509 C923.88169576 1300.54873324 913.75663043 1300.55156746 903.63154125 1300.54951286 C892.76911727 1300.54731402 881.90670763 1300.54933636 871.04428577 1300.55665779 C870.35776554 1300.5571171 869.67124531 1300.5575764 868.96392143 1300.55804963 C866.16773864 1300.55993294 863.37155586 1300.56184432 860.57537311 1300.56379201 C831.41550417 1300.58407358 802.25564292 1300.59020372 773.09576773 1300.59137623 C769.95765725 1300.59150573 766.81954678 1300.59164161 763.6814363 1300.59178305 C762.90269311 1300.59181706 762.12394993 1300.59185106 761.32160846 1300.5918861 C744.0597183 1300.59270325 726.7978296 1300.59708383 709.53594021 1300.60209474 C702.42660576 1300.60415147 695.31727129 1300.60613154 688.20793682 1300.60812724 C687.02963006 1300.608459 687.02963006 1300.608459 685.82751912 1300.60879747 C640.81513988 1300.62144481 595.80276159 1300.6296958 550.79038048 1300.62878036 C549.10605092 1300.62874881 547.42172136 1300.62871734 545.7373918 1300.62868595 C538.13289717 1300.62853918 530.52840255 1300.62836284 522.92390793 1300.62817818 C519.53291827 1300.62809593 516.14192861 1300.62801564 512.75093895 1300.62793555 C511.0536879 1300.62789476 509.35643686 1300.62785272 507.65918581 1300.62780943 C453.99520378 1300.62644907 400.33124815 1300.64108173 346.66727352 1300.66889 C333.14726901 1300.67589216 319.62726447 1300.68283113 306.10725975 1300.68941879 C305.27475554 1300.68982454 304.44225132 1300.69023029 303.58451971 1300.69064833 C277.92113349 1300.70308058 252.25774945 1300.71060989 226.59436035 1300.71313477 C225.38555353 1300.71325462 225.38555353 1300.71325462 224.15232637 1300.71337689 C206.4604491 1300.71508354 188.76857197 1300.7156058 171.07669464 1300.71503614 C164.74600513 1300.71484317 158.41531563 1300.71473908 152.08462612 1300.71467868 C150.50973915 1300.71466285 148.93485217 1300.71464244 147.3599652 1300.71461743 C122.2788513 1300.71426497 97.19776002 1300.72565332 72.1166526 1300.74292506 C46.85067965 1300.76023565 21.58473799 1300.76459827 -3.6812384 1300.75140242 C-7.17563988 1300.74957793 -10.67004142 1300.74789135 -14.16444302 1300.74628639 C-14.84941389 1300.74596622 -15.53438477 1300.74564604 -16.24011234 1300.74531617 C-27.72602305 1300.74033216 -39.21186779 1300.75114694 -50.69776832 1300.76618549 C-60.69821339 1300.7781733 -70.69858663 1300.77560769 -80.69902839 1300.76124449 C-86.39592373 1300.7534715 -92.09262721 1300.75195878 -97.78950913 1300.7681592 C-102.97975283 1300.78278944 -108.16964614 1300.77875952 -113.35987463 1300.76031146 C-115.21847197 1300.7568897 -117.07709724 1300.76005686 -118.93566602 1300.77091388 C-148.08735386 1300.92970001 -172.78392322 1291.58114872 -194.01998234 1271.25726891 C-212.62291754 1252.57571272 -222.35004355 1227.63215464 -222.43767643 1201.40811729 C-222.43344045 1199.80469237 -222.4288828 1198.20126827 -222.42403507 1196.59784508 C-222.42975181 1194.86968613 -222.43672106 1193.14153094 -222.4448328 1191.41338158 C-222.46263715 1186.76026964 -222.4616198 1182.10734759 -222.45589042 1177.45421195 C-222.45277946 1173.55064767 -222.45891218 1169.64711886 -222.46492916 1165.74355966 C-222.47893156 1156.52405911 -222.47744945 1147.30465131 -222.46602726 1138.08514977 C-222.45455529 1128.61704434 -222.4686161 1119.1492225 -222.49542373 1109.68115443 C-222.51767464 1101.51250107 -222.52419692 1093.34393611 -222.51834732 1085.17525464 C-222.51499831 1080.31398076 -222.51725431 1075.45288847 -222.53459835 1070.59164047 C-222.55021567 1066.01543296 -222.5459505 1061.43964106 -222.52729321 1056.8634491 C-222.52364756 1055.19835672 -222.52659588 1053.53323252 -222.53717899 1051.86816978 C-222.69515004 1024.92616456 -213.64052551 1000.82216112 -194.95748234 981.07758141 C-193.33279988 979.4463478 -191.69426626 977.83737436 -190.01998234 976.25726891 C-191.4314535 973.0044369 -193.11325606 971.02772342 -195.70748234 968.63226891 C-210.38293908 954.19436452 -221.35233467 931.5213222 -222.15420341 910.78657627 C-222.1584769 909.50155374 -222.16275038 908.2165312 -222.16715336 906.89256859 C-222.17083005 906.17256434 -222.17450673 905.45256009 -222.17829484 904.71073753 C-222.18926698 902.30916704 -222.19316454 899.90763992 -222.19698429 897.5060482 C-222.20325413 895.77907234 -222.20990139 894.05209781 -222.21689701 892.32512474 C-222.23788845 886.66058851 -222.24829892 880.99605217 -222.25826359 875.33148766 C-222.26231382 873.374846 -222.26643082 871.41820449 -222.27061367 869.46156311 C-222.28965927 860.26130041 -222.30388826 851.06104568 -222.31222564 841.86076707 C-222.32197788 831.27639771 -222.34824732 820.6922386 -222.38872653 810.10794324 C-222.41900816 801.90549958 -222.43370611 793.70311574 -222.43700665 785.50061733 C-222.43934457 780.61237066 -222.44813873 775.72434874 -222.47346783 770.83616257 C-222.49696356 766.22726556 -222.50089662 761.61873781 -222.49070644 757.00979614 C-222.49021605 755.33179677 -222.49638701 753.65377787 -222.51026249 751.9758358 C-222.72068535 724.98689245 -213.67518501 700.85878992 -194.95748234 681.07758141 C-193.33279988 679.4463478 -191.69426626 677.83737436 -190.01998234 676.25726891 C-191.4314535 673.0044369 -193.11325606 671.02772342 -195.70748234 668.63226891 C-210.77709057 653.80659318 -221.84312106 630.48228676 -222.15420341 609.18636703 C-222.16359469 607.12508745 -222.16751112 605.0637786 -222.16715336 603.00247765 C-222.17083005 601.8639842 -222.17450673 600.72549075 -222.17829484 599.55249751 C-222.18931455 595.7345196 -222.19317271 591.91656892 -222.19698429 588.0985775 C-222.20272064 585.36170279 -222.20988502 582.62483213 -222.21689701 579.88796043 C-222.23662989 571.67079108 -222.24672586 563.45362056 -222.2556248 555.23643345 C-222.26001492 551.35883215 -222.26538003 547.4812322 -222.27061367 543.60363197 C-222.28762655 530.69814844 -222.30211645 517.79266573 -222.30936241 504.8871727 C-222.31127207 501.54048601 -222.31319243 498.19379932 -222.31514835 494.84711266 C-222.31563209 494.01538912 -222.31611583 493.18366559 -222.31661423 492.32673831 C-222.3248985 478.88051345 -222.35020793 465.43437802 -222.38272903 451.98819213 C-222.41590708 438.15655205 -222.43382104 424.32495723 -222.43700665 410.49327719 C-222.43916238 402.73830598 -222.44777194 394.98346498 -222.47346783 387.22853279 C-222.49532261 380.61781391 -222.50315369 374.00725685 -222.49350104 367.39650594 C-222.48899783 364.03184285 -222.49284963 360.66777957 -222.51026249 357.30311966 C-222.66948725 324.68660662 -214.45633087 301.51236939 -200.00704288 272.68207359 C-198.7877306 270.23691626 -197.57077653 267.7905872 -196.35366154 265.34433556 C-193.40655078 259.42479083 -190.45083736 253.50958389 -187.49171218 247.59603736 C-185.08471786 242.78563293 -182.68058364 237.97380941 -180.27841473 233.16099358 C-179.76315166 232.12868188 -179.76315166 232.12868188 -179.23747924 231.0755154 C-178.53939324 229.67691962 -177.84130903 228.27832294 -177.1432266 226.87972537 C-170.61698958 213.80556826 -164.0803972 200.73660954 -157.54059581 187.66923347 C-151.5708455 175.74007763 -145.61427779 163.80439574 -139.66386845 151.86558232 C-133.53569838 139.57041646 -127.39858307 127.27975405 -121.25187618 114.99384427 C-117.80834388 108.11059172 -114.36829725 101.22565192 -110.93765163 94.33596611 C-108.01873067 88.47420721 -105.09132687 82.61677959 -102.15319165 76.76462647 C-100.65740678 73.7847689 -99.16676894 70.80263528 -97.6840086 67.81625557 C-86.40667041 45.11449189 -86.40667041 45.11449189 -78.01998234 35.25726891 C-77.37081191 34.45030949 -76.72164148 33.64335007 -76.05279922 32.81193733 C-57.69552249 10.21990967 -28.29775576 -0.0871102 0 0 Z M-37.82212067 67.23408318 C-42.08075567 72.07114216 -44.96186711 77.14302723 -47.80295658 82.89777184 C-48.31093802 83.89878536 -48.81891946 84.89979888 -49.34229428 85.93114614 C-50.91367158 89.03390085 -52.46696852 92.1452915 -54.01998234 95.25726891 C-54.96332054 97.12146839 -55.90817245 98.98490281 -56.85468197 100.84749413 C-59.75262237 106.55873293 -62.62345673 112.28337345 -65.49239445 118.00922203 C-66.57950295 120.17550689 -67.66674676 122.34172385 -68.7541132 124.50787926 C-71.96855591 130.91317813 -75.17975421 137.32010024 -78.38996419 143.72752118 C-79.29972776 145.54331239 -80.20958521 147.35905652 -81.11947274 149.17478561 C-86.8031988 160.51703989 -92.48564207 171.85993592 -98.16430664 183.20472527 C-99.46782627 185.80883644 -100.77135945 188.41294083 -102.07491398 191.01703453 C-102.39877465 191.66400982 -102.72263532 192.31098511 -103.05630995 192.97756571 C-108.3190329 203.49031927 -113.58998868 213.99892294 -118.86424475 224.50589424 C-124.3086533 235.35218665 -129.74543421 246.20227569 -135.17492586 257.05604315 C-138.21202707 263.12684975 -141.25236596 269.19598449 -144.30136776 275.2608242 C-147.16417755 280.95627087 -150.01735569 286.65644113 -152.86340427 292.36028099 C-153.90435691 294.44240605 -154.94868932 296.52284566 -155.99678326 298.60138512 C-164.90955422 316.28503748 -169.75063571 329.83314927 -172.01998234 350.25726891 C223.98001766 350.25726891 619.98001766 350.25726891 1027.98001766 350.25726891 C1025.49930652 327.93086867 1019.30497203 313.16519917 1009.52371883 293.69769859 C1008.3528842 291.34924358 1007.18289909 289.00036488 1006.01369381 286.65109825 C1003.18131074 280.9642395 1000.33827796 275.28277209 997.49123379 269.60324141 C995.1756992 264.9835177 992.86412824 260.36183065 990.55529881 255.73875237 C990.06021463 254.74743477 990.06021463 254.74743477 989.55512876 253.73609056 C988.8844134 252.39306104 988.21370696 251.05002708 987.54300932 249.70698872 C981.27161156 237.14997725 974.9880273 224.59909569 968.70017324 212.05031839 C963.31669296 201.30570318 957.94373254 190.55588205 952.57840633 179.80219078 C946.33117709 167.28091868 940.07741455 154.76294523 933.81332856 142.25009656 C933.144272 140.913576 932.47522371 139.57705129 931.80618382 138.24052238 C931.47709122 137.58310857 931.14799862 136.92569475 930.80893352 136.24835931 C928.50111552 131.63702285 926.19791796 127.02339666 923.89654255 122.40884209 C920.7943629 116.18892036 917.68150928 109.97443882 914.56158543 103.76339912 C913.42138829 101.48959014 912.28455299 99.21409162 911.15141964 96.93675423 C897.33516997 69.12401079 897.33516997 69.12401079 871.85111141 52.47601891 C862.0060671 49.77111784 851.53157157 50.11252314 841.42017651 50.12863445 C839.95291144 50.12728609 838.48564673 50.12550124 837.01838267 50.12332222 C832.99098574 50.11860702 828.96361151 50.12008908 824.93621348 50.12259999 C820.55286156 50.12423612 816.16951443 50.12008969 811.78616405 50.11669081 C804.10511637 50.11154038 796.42407501 50.110119 788.74302578 50.11114693 C777.32085157 50.11267179 765.89868434 50.10851025 754.47651148 50.1032723 C732.88970671 50.09359968 711.30290431 50.0907881 689.71609762 50.09021524 C673.0469269 50.08975578 656.37775711 50.08769785 639.70858669 50.08451462 C634.91116039 50.08361708 630.11373409 50.08272727 625.31630778 50.08183974 C624.1236713 50.08161869 622.93103481 50.08139764 621.70225782 50.0811699 C588.15432252 50.07501546 554.60638754 50.07106936 521.05845165 50.07151318 C519.16107891 50.07153654 519.16107891 50.07153654 517.2253754 50.07156038 C510.81418896 50.07164349 504.40300251 50.07174253 497.99181607 50.07184509 C496.71851988 50.07186504 495.44522369 50.07188498 494.13334276 50.07190553 C491.5584279 50.07194597 488.98351303 50.07198777 486.40859817 50.07203092 C446.34223177 50.07264375 406.27587383 50.06513581 366.20950985 50.05145836 C321.20059326 50.03610002 276.19168223 50.02749198 231.18276286 50.02842158 C226.38407914 50.02849621 221.58539542 50.02854492 216.78671169 50.0285759 C215.60514381 50.02858755 214.42357592 50.02859921 213.20620295 50.02861121 C194.18698808 50.02864199 175.16778056 50.02225459 156.14856788 50.01364363 C137.03656318 50.00516957 117.92456923 50.00417528 98.81256369 50.01075295 C87.45767947 50.01445015 76.10282789 50.01261114 64.74794713 50.00281061 C57.16158524 49.99681581 49.57524703 49.99810054 41.98888624 50.00528111 C37.66754312 50.00916679 33.34626323 50.0099262 29.02492455 50.00182376 C25.08753958 49.99450598 21.15027006 49.99652689 17.2128901 50.00574763 C15.80330637 50.00745778 14.39371341 50.00587742 12.9841391 50.00044642 C-6.61410209 49.93004097 -23.9656336 52.26450186 -37.82212067 67.23408318 Z M-172.01998234 400.25726891 C-191.23308729 528.66870353 -191.23308729 528.66870353 -156.76998234 635.94476891 C-145.01638461 647.07975623 -130.5321246 650.43450585 -114.8510983 650.38376874 C-114.07595161 650.38529529 -113.30080493 650.38682183 -112.50216895 650.38839464 C-109.91426726 650.39228007 -107.32642445 650.38908441 -104.73852253 650.38590336 C-102.85258516 650.38725054 -100.96664807 650.38903473 -99.08071148 650.39121559 C-93.88620145 650.39594664 -88.69170893 650.39444358 -83.49719803 650.39193782 C-77.85042744 650.39030578 -72.2036606 650.39444472 -66.5568912 650.397847 C-56.65605502 650.40300404 -46.75522372 650.40441767 -36.85438633 650.40339088 C-26.23140174 650.40229189 -15.60842029 650.40330109 -4.98543644 650.40696335 C-3.97877626 650.40730783 -3.97877626 650.40730783 -2.9517795 650.40765927 C-0.21843169 650.40860091 2.51491612 650.4095566 5.24826392 650.41053046 C33.76013717 650.420674 62.27200845 650.42373641 90.7838833 650.42432257 C93.85269306 650.42438732 96.92150282 650.42445525 99.99031258 650.42452598 C100.75184415 650.42454298 101.51337572 650.42455999 102.297984 650.4245775 C119.17382488 650.42498597 136.04966539 650.42717591 152.92550608 650.42968182 C159.87447617 650.43071018 166.82344626 650.43170021 173.77241635 650.43269807 C174.92411882 650.43286396 174.92411882 650.43286396 176.09908801 650.43303319 C220.09756386 650.43935723 264.09603947 650.44348231 308.0945158 650.44302464 C309.74107138 650.44300886 311.38762696 650.44299312 313.03418254 650.44297743 C320.4682458 650.44290404 327.90230907 650.44281587 335.33637234 650.44272354 C338.65141136 650.44268242 341.96645037 650.44264227 345.28148938 650.44260223 C346.94072594 650.44258183 348.5999625 650.44256081 350.25919906 650.44253917 C402.72896699 650.44185889 455.19872818 650.44917691 507.66849422 650.46307945 C520.88891123 650.46658047 534.10932824 650.47004992 547.32974529 650.47334385 C548.14377601 650.47354672 548.95780672 650.4737496 549.79650503 650.47395862 C574.88499035 650.48017343 599.97347512 650.48393914 625.06196117 650.48520184 C625.84962003 650.48524179 626.63727888 650.48528174 627.44880619 650.4853229 C644.73967639 650.48617617 662.03054656 650.48643737 679.32141678 650.48615252 C685.50836888 650.48605604 691.69532098 650.48600399 697.88227308 650.48597379 C699.42143083 650.48596588 700.96058858 650.48595567 702.49974634 650.48594317 C727.02493987 650.48576685 751.55012762 650.49146488 776.07531949 650.50009699 C800.77621548 650.50874674 825.47710346 650.51093831 850.17800033 650.50433566 C853.59195604 650.50342338 857.00591177 650.5025801 860.41986752 650.50177765 C861.08908827 650.50161756 861.75830902 650.50145747 862.44780919 650.50129254 C873.68382926 650.49879748 884.91983722 650.50421418 896.15585501 650.5117272 C905.92999847 650.51771153 915.70412353 650.51644899 925.47826614 650.5092567 C931.05000434 650.50536213 936.62169344 650.50463709 942.19342825 650.51271405 C947.26423399 650.52000059 952.33494981 650.51804726 957.40575157 650.50879018 C959.22675718 650.50707176 961.04776986 650.50868779 962.86876826 650.51409139 C982.51274829 650.5684689 999.04007989 648.9760873 1013.86673641 634.56195641 C1066.74639074 576.89283246 1027.98001766 478.50038809 1027.98001766 400.25726891 C631.98001766 400.25726891 235.98001766 400.25726891 -172.01998234 400.25726891 Z M-144.26998234 705.75726891 C-144.93836124 706.1098275 -145.60674015 706.46238609 -146.29537296 706.82562828 C-155.56294502 711.95637107 -161.61463613 718.70773688 -166.51998234 728.00726891 C-166.84675968 728.61377281 -167.17353703 729.22027672 -167.51021671 729.84515953 C-172.7509867 740.69545304 -172.31630102 753.62956214 -172.2787714 765.4098568 C-172.28149009 766.86864457 -172.28505589 768.32743097 -172.28939152 769.78621483 C-172.2984128 773.70352414 -172.29501445 777.62072665 -172.28863335 781.53803754 C-172.28352056 785.66388727 -172.28827922 789.7897287 -172.29140568 793.91557884 C-172.29502968 800.83914369 -172.29028713 807.76266567 -172.28072453 814.68622398 C-172.2698387 822.65926295 -172.27337283 830.63219961 -172.28437734 838.60523611 C-172.2934899 845.48635287 -172.2947163 852.36743905 -172.2895 859.24855989 C-172.28640258 863.34282476 -172.28590905 867.43704173 -172.29257298 871.53130341 C-172.29840411 875.38183697 -172.29424557 879.23224019 -172.28278446 883.08275986 C-172.28016859 884.48507154 -172.28084943 885.88739443 -172.28530979 887.28970146 C-172.33885111 905.85199935 -169.79089635 921.9740941 -156.76998234 935.94476891 C-145.01638461 947.07975623 -130.5321246 950.43450585 -114.8510983 950.38376874 C-114.07595161 950.38529529 -113.30080493 950.38682183 -112.50216895 950.38839464 C-109.91426726 950.39228007 -107.32642445 950.38908441 -104.73852253 950.38590336 C-102.85258516 950.38725054 -100.96664807 950.38903473 -99.08071148 950.39121559 C-93.88620145 950.39594664 -88.69170893 950.39444358 -83.49719803 950.39193782 C-77.85042744 950.39030578 -72.2036606 950.39444472 -66.5568912 950.397847 C-56.65605502 950.40300404 -46.75522372 950.40441767 -36.85438633 950.40339088 C-26.23140174 950.40229189 -15.60842029 950.40330109 -4.98543644 950.40696335 C-3.97877626 950.40730783 -3.97877626 950.40730783 -2.9517795 950.40765927 C-0.21843169 950.40860091 2.51491612 950.4095566 5.24826392 950.41053046 C33.76013717 950.420674 62.27200845 950.42373641 90.7838833 950.42432257 C93.85269306 950.42438732 96.92150282 950.42445525 99.99031258 950.42452598 C100.75184415 950.42454298 101.51337572 950.42455999 102.297984 950.4245775 C119.17382488 950.42498597 136.04966539 950.42717591 152.92550608 950.42968182 C159.87447617 950.43071018 166.82344626 950.43170021 173.77241635 950.43269807 C174.92411882 950.43286396 174.92411882 950.43286396 176.09908801 950.43303319 C220.09756386 950.43935723 264.09603947 950.44348231 308.0945158 950.44302464 C309.74107138 950.44300886 311.38762696 950.44299312 313.03418254 950.44297743 C320.4682458 950.44290404 327.90230907 950.44281587 335.33637234 950.44272354 C338.65141136 950.44268242 341.96645037 950.44264227 345.28148938 950.44260223 C346.94072594 950.44258183 348.5999625 950.44256081 350.25919906 950.44253917 C402.72896699 950.44185889 455.19872818 950.44917691 507.66849422 950.46307945 C520.88891123 950.46658047 534.10932824 950.47004992 547.32974529 950.47334385 C548.14377601 950.47354672 548.95780672 950.4737496 549.79650503 950.47395862 C574.88499035 950.48017343 599.97347512 950.48393914 625.06196117 950.48520184 C625.84962003 950.48524179 626.63727888 950.48528174 627.44880619 950.4853229 C644.73967639 950.48617617 662.03054656 950.48643737 679.32141678 950.48615252 C685.50836888 950.48605604 691.69532098 950.48600399 697.88227308 950.48597379 C699.42143083 950.48596588 700.96058858 950.48595567 702.49974634 950.48594317 C727.02493987 950.48576685 751.55012762 950.49146488 776.07531949 950.50009699 C800.77621548 950.50874674 825.47710346 950.51093831 850.17800033 950.50433566 C853.59195604 950.50342338 857.00591177 950.5025801 860.41986752 950.50177765 C861.08908827 950.50161756 861.75830902 950.50145747 862.44780919 950.50129254 C873.68382926 950.49879748 884.91983722 950.50421418 896.15585501 950.5117272 C905.92999847 950.51771153 915.70412353 950.51644899 925.47826614 950.5092567 C931.05000434 950.50536213 936.62169344 950.50463709 942.19342825 950.51271405 C947.26423399 950.52000059 952.33494981 950.51804726 957.40575157 950.50879018 C959.22675718 950.50707176 961.04776986 950.50868779 962.86876826 950.51409139 C982.51274829 950.5684689 999.04007989 948.9760873 1013.86673641 934.56195641 C1026.97373668 920.26781563 1028.13293728 904.06247502 1028.12528133 885.57465172 C1028.12827949 884.11807737 1028.13168352 882.6615038 1028.13545895 881.20493126 C1028.14423651 877.27495238 1028.14663442 873.34499533 1028.14727473 869.41500759 C1028.14798881 866.95211439 1028.15012988 864.48922661 1028.15277195 862.02633476 C1028.16200486 853.41255406 1028.16610943 844.79878877 1028.1653204 836.18500328 C1028.16472023 828.19048896 1028.17526545 820.19604223 1028.19106406 812.201545 C1028.20419417 805.3086094 1028.20950201 798.41569575 1028.20886499 791.52274776 C1028.2086116 787.41888275 1028.21137411 783.31507791 1028.22204304 779.21122551 C1028.23181664 775.34679935 1028.23174069 771.48248974 1028.22452641 767.61805916 C1028.22349195 766.21132929 1028.22577443 764.8045918 1028.23188686 763.39787483 C1028.30960152 744.25075184 1026.08260404 728.62392601 1012.30033016 714.37445641 C1008.77732971 711.15986676 1005.14272719 708.57555547 1000.98001766 706.25726891 C1000.29552547 705.86797203 999.61103329 705.47867516 998.90579891 705.07758141 C986.88010158 698.98693248 972.24649958 699.96863771 959.11734676 700.00558662 C957.2292946 700.00349705 955.34124325 700.0005321 953.45319366 699.99677789 C948.27609778 699.98901155 943.09907679 699.99363828 937.92198217 700.0003338 C932.28540109 700.00541598 926.64883132 699.99888388 921.01225185 699.99384713 C911.13702873 699.98662754 901.26182748 699.98684058 891.38660336 699.99194145 C880.79474206 699.99739762 870.20289122 699.99859881 859.61102962 699.99446678 C858.94109974 699.99420844 858.27116985 699.99395009 857.58093905 699.99368392 C854.85225057 699.99261733 852.1235621 699.99151991 849.39487365 699.99038337 C824.00064512 699.97981374 798.60642517 699.9790833 773.2121954 699.98467827 C772.08428614 699.98492665 772.08428614 699.98492665 770.93359083 699.98518006 C770.18044397 699.98534592 769.4272971 699.98551178 768.65132761 699.98568266 C745.69977339 699.99073042 722.74822271 699.99203117 699.79666805 699.98963737 C698.25930709 699.98948242 696.72194612 699.9893281 695.18458515 699.98917443 C689.00645889 699.98855349 682.82833262 699.98791616 676.65020636 699.98725491 C659.38013861 699.98542096 642.11007085 699.98427971 624.84000301 699.98368263 C624.05358656 699.98365534 623.26717011 699.98362805 622.45692285 699.98359993 C597.40094057 699.98278146 572.34495952 699.98503471 547.28897762 699.98938179 C546.4763941 699.98952229 545.66381057 699.98966279 544.8266033 699.98980754 C531.63104672 699.9920974 518.43549017 699.99453634 505.23993362 699.99698789 C452.90589571 700.00670045 400.57186803 700.00624964 348.23783016 699.99652672 C335.04890602 699.99408431 321.85998187 699.99166219 308.6710577 699.98938179 C307.45289736 699.98917045 307.45289736 699.98917045 306.21012772 699.98895483 C281.18009575 699.98464201 256.15006464 699.982814 231.12003231 699.98368263 C229.94127553 699.98372339 229.94127553 699.98372339 228.73870548 699.98376496 C211.4877757 699.98438994 194.23684601 699.98565725 176.98591631 699.98750364 C170.81333674 699.98816191 164.64075716 699.98878807 158.46817758 699.98940506 C156.93262204 699.98955984 155.39706651 699.9897173 153.86151097 699.98987745 C130.91648731 699.99226397 107.97146765 699.99023305 85.02644449 699.98518006 C84.27450499 699.98501447 83.52256548 699.98484888 82.74783993 699.98467827 C81.99728956 699.9845129 81.2467392 699.98434754 80.47344488 699.98417716 C55.15198661 699.97865923 29.83053864 699.98069296 4.50908184 699.99123976 C1.78905647 699.99234445 -0.93096891 699.99341786 -3.6509943 699.99446678 C-4.31852781 699.9947272 -4.98606132 699.99498761 -5.67382312 699.99525591 C-16.87822449 699.9994376 -28.08261408 699.99573484 -39.28701434 699.98994741 C-49.0354773 699.98546701 -58.78392067 699.98824589 -68.53238073 699.99695695 C-74.0885416 700.00171949 -79.64465394 700.00333075 -85.20081329 699.99614498 C-90.25859545 699.98967042 -95.31628617 699.99244938 -100.3740617 700.0025063 C-102.18921868 700.0045152 -104.00438328 700.00320274 -105.81953418 699.99809442 C-125.66494831 699.71470945 -125.66494831 699.71470945 -144.26998234 705.75726891 Z M-144.26998234 1005.75726891 C-144.93836124 1006.1098275 -145.60674015 1006.46238609 -146.29537296 1006.82562828 C-155.56294502 1011.95637107 -161.61463613 1018.70773688 -166.51998234 1028.00726891 C-166.84675968 1028.61377281 -167.17353703 1029.22027672 -167.51021671 1029.84515953 C-172.7509867 1040.69545304 -172.31630102 1053.62956214 -172.2787714 1065.4098568 C-172.28149009 1066.86864457 -172.28505589 1068.32743097 -172.28939152 1069.78621483 C-172.2984128 1073.70352414 -172.29501445 1077.62072665 -172.28863335 1081.53803754 C-172.28352056 1085.66388727 -172.28827922 1089.7897287 -172.29140568 1093.91557884 C-172.29502968 1100.83914369 -172.29028713 1107.76266567 -172.28072453 1114.68622398 C-172.2698387 1122.65926295 -172.27337283 1130.63219961 -172.28437734 1138.60523611 C-172.2934899 1145.48635287 -172.2947163 1152.36743905 -172.2895 1159.24855989 C-172.28640258 1163.34282476 -172.28590905 1167.43704173 -172.29257298 1171.53130341 C-172.29840411 1175.38183697 -172.29424557 1179.23224019 -172.28278446 1183.08275986 C-172.28016859 1184.48507154 -172.28084943 1185.88739443 -172.28530979 1187.28970146 C-172.34086178 1206.54908135 -169.48819044 1222.04700028 -156.02779484 1236.37836266 C-141.52012672 1250.43432682 -123.18963074 1250.56207136 -104.24633121 1250.50895119 C-102.35573108 1250.51104028 -100.46513174 1250.51400487 -98.57453418 1250.51775992 C-93.38570858 1250.52553316 -88.19695762 1250.52089589 -83.00813326 1250.51420401 C-77.36059002 1250.5091252 -71.71305811 1250.5156526 -66.06551647 1250.52069068 C-56.16952552 1250.52791272 -46.27355639 1250.52769572 -36.37756443 1250.52259636 C-25.7627077 1250.51714142 -15.14786237 1250.515938 -4.53300571 1250.52007103 C-3.86178416 1250.52032937 -3.1905626 1250.52058772 -2.49900099 1250.52085389 C0.23491931 1250.52192047 2.9688396 1250.52301789 5.70275987 1250.52415445 C31.14953135 1250.53472576 56.59629426 1250.53545377 82.04306698 1250.52985954 C83.17345986 1250.52961116 83.17345986 1250.52961116 84.32668897 1250.52935775 C85.0814932 1250.52919189 85.83629743 1250.52902603 86.61397451 1250.52885515 C109.61324823 1250.523808 132.61251841 1250.52250637 155.61179256 1250.52490044 C157.15217026 1250.5250554 158.69254795 1250.52520971 160.23292564 1250.52536338 C166.42312836 1250.52598431 172.61333107 1250.52662165 178.80353379 1250.5272829 C196.10750942 1250.52911688 213.41148506 1250.53025811 230.71546078 1250.53085518 C231.89741524 1250.53089612 231.89741524 1250.53089612 233.10324758 1250.53093788 C258.20984604 1250.53175639 283.31644327 1250.52950291 308.42304134 1250.52515602 C309.23730239 1250.52501552 310.05156344 1250.52487503 310.89049907 1250.52473027 C324.11341342 1250.5224404 337.33632774 1250.52000146 350.55924207 1250.51754992 C403.00223839 1250.50783732 455.44522451 1250.50828812 507.88822079 1250.51801109 C521.10447851 1250.52045349 534.32073623 1250.5228756 547.53699398 1250.52515602 C548.35077678 1250.52529692 549.16455959 1250.52543781 550.00300248 1250.52558298 C575.08352666 1250.5298956 600.16405 1250.53172385 625.24457455 1250.53085518 C626.03196492 1250.53082801 626.8193553 1250.53080084 627.63060599 1250.53077285 C644.91538518 1250.53014788 662.20016428 1250.52888058 679.48494338 1250.52703417 C685.66959856 1250.5263759 691.85425373 1250.52574973 698.03890891 1250.52513275 C699.57747764 1250.52497797 701.11604637 1250.52482051 702.65461509 1250.52466036 C725.64752701 1250.52227355 748.64043494 1250.52430534 771.63334636 1250.52935775 C772.76373924 1250.52960614 772.76373924 1250.52960614 773.91696835 1250.52985954 C774.66917226 1250.53002491 775.42137617 1250.53019027 776.19637414 1250.53036065 C801.57001376 1250.53587779 826.9436431 1250.53384644 852.31728125 1250.52329805 C855.0425345 1250.52219336 857.76778776 1250.52111995 860.49304104 1250.52007103 C861.49627021 1250.51968041 861.49627021 1250.51968041 862.51976663 1250.5192819 C873.74895091 1250.51509906 884.97812431 1250.51880405 896.20730784 1250.5245904 C905.97540031 1250.5290692 915.74347323 1250.52629482 925.5115628 1250.51758087 C931.07977297 1250.51281609 936.6479347 1250.51121168 942.21614337 1250.51839283 C947.28370053 1250.52486175 952.35116635 1250.52209653 957.41871688 1250.51203151 C959.23853615 1250.51002063 961.05836301 1250.51134033 962.87817624 1250.51644339 C982.51842287 1250.5676007 999.04312063 1248.97313116 1013.86673641 1234.56195641 C1026.97373668 1220.26781563 1028.13293728 1204.06247502 1028.12528133 1185.57465172 C1028.12827949 1184.11807737 1028.13168352 1182.6615038 1028.13545895 1181.20493126 C1028.14423651 1177.27495238 1028.14663442 1173.34499533 1028.14727473 1169.41500759 C1028.14798881 1166.95211439 1028.15012988 1164.48922661 1028.15277195 1162.02633476 C1028.16200486 1153.41255406 1028.16610943 1144.79878877 1028.1653204 1136.18500328 C1028.16472023 1128.19048896 1028.17526545 1120.19604223 1028.19106406 1112.201545 C1028.20419417 1105.3086094 1028.20950201 1098.41569575 1028.20886499 1091.52274776 C1028.2086116 1087.41888275 1028.21137411 1083.31507791 1028.22204304 1079.21122551 C1028.23181664 1075.34679935 1028.23174069 1071.48248974 1028.22452641 1067.61805916 C1028.22349195 1066.21132929 1028.22577443 1064.8045918 1028.23188686 1063.39787483 C1028.30960152 1044.25075184 1026.08260404 1028.62392601 1012.30033016 1014.37445641 C1008.77732971 1011.15986676 1005.14272719 1008.57555547 1000.98001766 1006.25726891 C1000.29552547 1005.86797203 999.61103329 1005.47867516 998.90579891 1005.07758141 C986.88010158 998.98693248 972.24649958 999.96863771 959.11734676 1000.00558662 C957.2292946 1000.00349705 955.34124325 1000.0005321 953.45319366 999.99677789 C948.27609778 999.98901155 943.09907679 999.99363828 937.92198217 1000.0003338 C932.28540109 1000.00541598 926.64883132 999.99888388 921.01225185 999.99384713 C911.13702873 999.98662754 901.26182748 999.98684058 891.38660336 999.99194145 C880.79474206 999.99739762 870.20289122 999.99859881 859.61102962 999.99446678 C858.94109974 999.99420844 858.27116985 999.99395009 857.58093905 999.99368392 C854.85225057 999.99261733 852.1235621 999.99151991 849.39487365 999.99038337 C824.00064512 999.97981374 798.60642517 999.9790833 773.2121954 999.98467827 C772.08428614 999.98492665 772.08428614 999.98492665 770.93359083 999.98518006 C770.18044397 999.98534592 769.4272971 999.98551178 768.65132761 999.98568266 C745.69977339 999.99073042 722.74822271 999.99203117 699.79666805 999.98963737 C698.25930709 999.98948242 696.72194612 999.9893281 695.18458515 999.98917443 C689.00645889 999.98855349 682.82833262 999.98791616 676.65020636 999.98725491 C659.38013861 999.98542096 642.11007085 999.98427971 624.84000301 999.98368263 C624.05358656 999.98365534 623.26717011 999.98362805 622.45692285 999.98359993 C597.40094057 999.98278146 572.34495952 999.98503471 547.28897762 999.98938179 C546.4763941 999.98952229 545.66381057 999.98966279 544.8266033 999.98980754 C531.63104672 999.9920974 518.43549017 999.99453634 505.23993362 999.99698789 C452.90589571 1000.00670045 400.57186803 1000.00624964 348.23783016 999.99652672 C335.04890602 999.99408431 321.85998187 999.99166219 308.6710577 999.98938179 C307.45289736 999.98917045 307.45289736 999.98917045 306.21012772 999.98895483 C281.18009575 999.98464201 256.15006464 999.982814 231.12003231 999.98368263 C229.94127553 999.98372339 229.94127553 999.98372339 228.73870548 999.98376496 C211.4877757 999.98438994 194.23684601 999.98565725 176.98591631 999.98750364 C170.81333674 999.98816191 164.64075716 999.98878807 158.46817758 999.98940506 C156.93262204 999.98955984 155.39706651 999.9897173 153.86151097 999.98987745 C130.91648731 999.99226397 107.97146765 999.99023305 85.02644449 999.98518006 C84.27450499 999.98501447 83.52256548 999.98484888 82.74783993 999.98467827 C81.99728956 999.9845129 81.2467392 999.98434754 80.47344488 999.98417716 C55.15198661 999.97865923 29.83053864 999.98069296 4.50908184 999.99123976 C1.78905647 999.99234445 -0.93096891 999.99341786 -3.6509943 999.99446678 C-4.31852781 999.9947272 -4.98606132 999.99498761 -5.67382312 999.99525591 C-16.87822449 999.9994376 -28.08261408 999.99573484 -39.28701434 999.98994741 C-49.0354773 999.98546701 -58.78392067 999.98824589 -68.53238073 999.99695695 C-74.0885416 1000.00171949 -79.64465394 1000.00333075 -85.20081329 999.99614498 C-90.25859545 999.98967042 -95.31628617 999.99244938 -100.3740617 1000.0025063 C-102.18921868 1000.0045152 -104.00438328 1000.00320274 -105.81953418 999.99809442 C-125.66494831 999.71470945 -125.66494831 999.71470945 -144.26998234 1005.75726891 Z " fill="#000000" transform="translate(372.01998233795166,149.74273109436035)"/>
<path d="M0 0 C0.96046324 -0.00577571 1.92092647 -0.01155142 2.91049466 -0.01750216 C4.4844324 -0.01176497 4.4844324 -0.01176497 6.09016687 -0.00591189 C7.21402025 -0.00971756 8.33787363 -0.01352323 9.49578318 -0.01744422 C13.2888734 -0.02780978 17.08181534 -0.02384465 20.8749159 -0.02000433 C23.61097631 -0.02335146 26.347028 -0.02968824 29.08308327 -0.03587306 C35.0459437 -0.04773118 41.00877351 -0.05208539 46.97164518 -0.05155188 C55.83877711 -0.0507594 64.70587032 -0.06130067 73.57299192 -0.07396745 C91.25396014 -0.0987224 108.93491901 -0.10749184 126.61590218 -0.11250394 C127.98982218 -0.1128957 127.98982218 -0.1128957 129.39149815 -0.11329538 C130.30926048 -0.11355565 131.22702282 -0.11381592 132.17259613 -0.11408409 C142.33732566 -0.11716486 152.50205257 -0.12366907 162.66678029 -0.13029677 C193.36118901 -0.14994624 224.0555949 -0.16634971 254.75001031 -0.1691733 C255.73204726 -0.16926736 256.71408421 -0.16936142 257.72587985 -0.16945833 C261.70574623 -0.16983682 265.68561261 -0.17020082 269.66547898 -0.17056131 C272.66105728 -0.17083303 275.65663558 -0.17110971 278.65221387 -0.17138678 C279.6420674 -0.1714748 280.63192092 -0.17156282 281.65177001 -0.17165351 C312.75513602 -0.1745591 343.85843989 -0.19665532 374.96178418 -0.23291022 C409.89369898 -0.27362661 444.82557143 -0.29733179 479.75751126 -0.29763281 C483.48167231 -0.29772964 487.20583336 -0.29789636 490.9299944 -0.29811293 C491.84699959 -0.29815704 492.76400478 -0.29820116 493.708798 -0.29824661 C508.47325563 -0.29936701 523.23765107 -0.31678373 538.00208866 -0.33993225 C552.83882356 -0.36276272 567.67547434 -0.36700781 582.51222035 -0.35238295 C591.32850673 -0.34422498 600.14452834 -0.34994535 608.96078267 -0.3755638 C614.85005638 -0.39129725 620.7391418 -0.38885701 626.62841093 -0.37165707 C629.98406895 -0.36237011 633.33880002 -0.36369421 636.69448509 -0.38162314 C640.31228297 -0.39970956 643.92872463 -0.38704406 647.54648095 -0.36667544 C648.58406695 -0.37923881 649.62165295 -0.39180218 650.69068095 -0.40474626 C657.75115357 -0.3194898 663.26951374 1.21282731 669.13292676 5.25415033 C675.89994561 12.37370743 677.67738382 18.93318014 677.50402051 28.67211908 C676.85459961 34.94073975 674.74214649 39.72909898 670.19542676 44.12915033 C665.2978641 47.98783606 660.60994802 50.50210115 654.26585352 50.50830066 C653.30539029 50.51407637 652.34492705 50.51985209 651.35535887 50.52580282 C649.78142112 50.52006564 649.78142112 50.52006564 648.17568666 50.51421255 C647.05183327 50.51801822 645.92797989 50.52182389 644.77007034 50.52574489 C640.97698013 50.53611044 637.18403818 50.53214531 633.39093763 50.52830499 C630.65487722 50.53165212 627.91882552 50.53798891 625.18277025 50.54417372 C619.21990982 50.55603184 613.25708001 50.56038605 607.29420835 50.55985254 C598.42707642 50.55906007 589.5599832 50.56960133 580.69286161 50.58226811 C563.01189338 50.60702306 545.33093452 50.6157925 527.64995135 50.6208046 C526.73400468 50.62106577 525.81805801 50.62132695 524.87435538 50.62159604 C523.95659304 50.62185631 523.03883071 50.62211659 522.09325739 50.62238475 C511.92852787 50.62546552 501.76380095 50.63196974 491.59907323 50.63859743 C460.90466452 50.6582469 430.21025862 50.67465037 399.51584321 50.67747396 C398.04278779 50.67761505 398.04278779 50.67761505 396.53997367 50.677759 C392.5601073 50.67813748 388.58024092 50.67850148 384.60037454 50.67886197 C381.60479624 50.6791337 378.60921795 50.67941037 375.61363965 50.67968744 C374.62378613 50.67977546 373.6339326 50.67986349 372.61408351 50.67995418 C341.51071751 50.68285977 310.40741364 50.70495598 279.30406934 50.74121088 C244.37215455 50.78192727 209.44028209 50.80563246 174.50834227 50.80593348 C170.78418121 50.8060303 167.06002017 50.80619702 163.33585912 50.80641359 C162.41885393 50.80645771 161.50184875 50.80650182 160.55705552 50.80654727 C145.79259789 50.80766767 131.02820246 50.8250844 116.26376486 50.84823291 C101.42702996 50.87106339 86.59037919 50.87530847 71.75363318 50.86068361 C62.93734679 50.85252564 54.12132518 50.85824601 45.30507085 50.88386446 C39.41579715 50.89959791 33.52671172 50.89715768 27.63744259 50.87995773 C24.28178457 50.87067077 20.9270535 50.87199488 17.57136843 50.8899238 C13.95357056 50.90801023 10.3371289 50.89534472 6.71937257 50.8749761 C5.68178657 50.88753947 4.64420057 50.90010284 3.57517257 50.91304693 C-3.48530005 50.82779046 -9.00366022 49.29547335 -14.86707324 45.25415033 C-21.63409209 38.13459323 -23.4115303 31.57512052 -23.23816699 21.83618158 C-22.58874609 15.56756092 -20.47629297 10.77920168 -15.92957324 6.37915033 C-11.03201058 2.5204646 -6.34409449 0.00619951 0 0 Z " fill="#000000" transform="translate(372.86707323789597,249.74584966897964)"/>
<path d="M0 0 C4.30007299 3.36504483 8.15984785 7.12669546 12 11 C13.11181641 12.06154297 13.11181641 12.06154297 14.24609375 13.14453125 C28.02797723 27.19506743 32.64858854 46.69872314 32.46875 65.74755859 C31.86900899 86.50422012 23.80182828 103.71152993 9 118 C8.29359375 118.73734375 7.5871875 119.4746875 6.859375 120.234375 C-7.36493512 134.24152008 -26.71080574 138.25594701 -45.89160156 138.2487793 C-53.32235839 138.17060225 -59.99355415 137.63934193 -67 135 C-67.98613281 134.64808594 -68.97226563 134.29617188 -69.98828125 133.93359375 C-89.40747043 126.45708254 -104.00834644 112.56091101 -112.5234375 93.609375 C-119.68499905 75.80896191 -121.62105283 53.98395753 -114 36 C-113.73687012 35.36304199 -113.47374023 34.72608398 -113.20263672 34.06982422 C-108.79748084 23.64154632 -103.11111387 15.82980356 -95 8 C-94.29359375 7.26265625 -93.5871875 6.5253125 -92.859375 5.765625 C-86.31652501 -0.67733415 -78.34811838 -4.42370986 -70 -8 C-68.93394531 -8.45890625 -67.86789062 -8.9178125 -66.76953125 -9.390625 C-45.16150709 -17.01382855 -18.74800861 -12.72186299 0 0 Z M-66.8125 44.9375 C-71.96420049 52.14988068 -73.94252585 59.79580069 -72.59765625 68.6484375 C-70.35976524 77.25571061 -65.46551816 83.69033748 -58.19140625 88.7421875 C-50.75361268 93.0112954 -43.33095658 93.90694285 -35 92 C-25.80146292 88.94744844 -19.82914 82.92817936 -15.0625 74.625 C-12.53155417 65.99000834 -12.21726295 58.29717141 -16 50 C-20.41259369 42.31222032 -26.66917556 36.85473312 -35.125 34.125 C-47.62686337 30.93303488 -58.35551482 35.52407006 -66.8125 44.9375 Z " fill="#000000" transform="translate(1268,912)"/>
<path d="M0 0 C4.30007299 3.36504483 8.15984785 7.12669546 12 11 C13.11181641 12.06154297 13.11181641 12.06154297 14.24609375 13.14453125 C28.02797723 27.19506743 32.64858854 46.69872314 32.46875 65.74755859 C31.86900899 86.50422012 23.80182828 103.71152993 9 118 C8.29359375 118.73734375 7.5871875 119.4746875 6.859375 120.234375 C-7.36493512 134.24152008 -26.71080574 138.25594701 -45.89160156 138.2487793 C-53.32235839 138.17060225 -59.99355415 137.63934193 -67 135 C-67.98613281 134.64808594 -68.97226563 134.29617188 -69.98828125 133.93359375 C-89.40747043 126.45708254 -104.00834644 112.56091101 -112.5234375 93.609375 C-119.68499905 75.80896191 -121.62105283 53.98395753 -114 36 C-113.73687012 35.36304199 -113.47374023 34.72608398 -113.20263672 34.06982422 C-108.79748084 23.64154632 -103.11111387 15.82980356 -95 8 C-94.29359375 7.26265625 -93.5871875 6.5253125 -92.859375 5.765625 C-86.31652501 -0.67733415 -78.34811838 -4.42370986 -70 -8 C-68.93394531 -8.45890625 -67.86789062 -8.9178125 -66.76953125 -9.390625 C-45.16150709 -17.01382855 -18.74800861 -12.72186299 0 0 Z M-65.5 43.4765625 C-71.39869091 50.04236727 -73.20206635 57.34680578 -73 66 C-71.23923548 76.12803393 -66.12188254 82.92397045 -58 89 C-50.85531404 93.04416186 -42.74998703 94.00124663 -34.8125 91.9375 C-26.57357412 89.03886047 -20.33671339 83.5555783 -16 76 C-12.41574979 68.13819571 -12.15733878 60.55266215 -14.875 52.36328125 C-18.34954261 44.48523846 -23.97938675 39.30812983 -31.375 35.0625 C-44.80995782 31.12466753 -55.52942576 33.66177848 -65.5 43.4765625 Z " fill="#000000" transform="translate(1268,612)"/>
<path d="M0 0 C4.30007299 3.36504483 8.15984785 7.12669546 12 11 C13.11181641 12.06154297 13.11181641 12.06154297 14.24609375 13.14453125 C27.16712449 26.31743394 32.32201426 45.02344035 32.5 63 C32.30278529 82.91868561 25.9783047 101.21576795 11.703125 115.390625 C10.81109375 116.25171875 9.9190625 117.1128125 9 118 C8.29359375 118.73734375 7.5871875 119.4746875 6.859375 120.234375 C-7.36493512 134.24152008 -26.71080574 138.25594701 -45.89160156 138.2487793 C-53.32235839 138.17060225 -59.99355415 137.63934193 -67 135 C-67.98613281 134.64808594 -68.97226563 134.29617188 -69.98828125 133.93359375 C-89.38028962 126.46754733 -104.08476125 112.55042151 -112.5234375 93.57421875 C-119.63294096 75.7593647 -121.72004532 54.02072902 -114 36 C-113.73687012 35.36449219 -113.47374023 34.72898437 -113.20263672 34.07421875 C-108.79743471 23.6433386 -103.11297057 15.83159587 -95 8 C-94.29359375 7.26265625 -93.5871875 6.5253125 -92.859375 5.765625 C-86.31652501 -0.67733415 -78.34811838 -4.42370986 -70 -8 C-68.93394531 -8.45890625 -67.86789062 -8.9178125 -66.76953125 -9.390625 C-45.16150709 -17.01382855 -18.74800861 -12.72186299 0 0 Z M-66 42 C-72.15200018 50.16612942 -74.88223369 57.87411598 -73.6640625 68.05859375 C-71.9359916 75.71293134 -68.27782098 83.0419582 -61.9296875 87.82421875 C-54.8302919 92.14996384 -47.40865339 94.99668513 -39 94 C-29.44198341 91.56527962 -21.9804364 87.53884225 -16.625 79.125 C-12.23164124 71.09245577 -10.95634173 64.05220399 -13 55 C-16.61102353 45.19691934 -21.23887401 39.07104288 -30.6875 34.6875 C-43.08998671 29.46655977 -56.49234578 32.26349633 -66 42 Z " fill="#000000" transform="translate(1268,1212)"/>
<path d="M0 0 C1.00037858 -0.00785502 1.00037858 -0.00785502 2.02096683 -0.01586872 C4.24856162 -0.03083185 6.47592597 -0.03157306 8.7035675 -0.03224182 C10.30382676 -0.03986595 11.90408236 -0.04829389 13.5043335 -0.0574646 C17.84755264 -0.07939513 22.19070138 -0.08820688 26.53396964 -0.09329104 C29.25025307 -0.09693719 31.96651815 -0.10317869 34.68279457 -0.11029243 C44.16726616 -0.13478468 53.6516831 -0.14783775 63.13618469 -0.15138245 C71.96297218 -0.1550146 80.7894113 -0.18488749 89.61609238 -0.22678703 C97.20440915 -0.26153922 104.79261077 -0.27693176 112.38100654 -0.27762848 C116.90859641 -0.2784198 121.43583153 -0.28709108 125.96333885 -0.31562614 C130.22592597 -0.34189056 134.4878664 -0.34396574 138.75049782 -0.3279705 C140.30888408 -0.32616247 141.86730824 -0.33278813 143.4256134 -0.34878922 C152.20156236 -0.43335794 159.94006227 -0.16774051 167.23994446 5.27415466 C173.98461383 12.43549255 175.78499179 18.9200251 175.61103821 28.69212341 C174.96161731 34.96074408 172.84916419 39.74910331 168.30244446 44.14915466 C162.61399505 48.63096329 157.78207753 50.51981544 150.47988892 50.54830933 C149.47951034 50.55616434 149.47951034 50.55616434 148.45892209 50.56417805 C146.23132729 50.57914117 144.00396295 50.57988238 141.77632141 50.58055115 C140.17606216 50.58817528 138.57580656 50.59660321 136.97555542 50.60577393 C132.63233627 50.62770446 128.28918753 50.63651621 123.94591928 50.64160037 C121.22963584 50.64524652 118.51337077 50.65148802 115.79709435 50.65860176 C106.31262275 50.68309401 96.82820582 50.69614707 87.34370422 50.69969177 C78.51691673 50.70332392 69.69047762 50.73319682 60.86379653 50.77509636 C53.27547977 50.80984854 45.68727814 50.82524109 38.09888238 50.82593781 C33.57129251 50.82672913 29.04405739 50.83540041 24.51655006 50.86393547 C20.25396295 50.89019988 15.99202252 50.89227506 11.7293911 50.87627983 C10.17100483 50.8744718 8.61258068 50.88109746 7.05427551 50.89709854 C-1.72167345 50.98166727 -9.46017336 50.71604984 -16.76005554 45.27415466 C-23.50472492 38.11281678 -25.30510287 31.62828422 -25.13114929 21.85618591 C-24.48172839 15.58756525 -22.36927527 10.79920602 -17.82255554 6.39915466 C-12.13410613 1.91734604 -7.30218862 0.02849389 0 0 Z " fill="#000000" transform="translate(924.7600555419922,1249.725845336914)"/>
<path d="M0 0 C1.00037858 -0.00785502 1.00037858 -0.00785502 2.02096683 -0.01586872 C4.24856162 -0.03083185 6.47592597 -0.03157306 8.7035675 -0.03224182 C10.30382676 -0.03986595 11.90408236 -0.04829389 13.5043335 -0.0574646 C17.84755264 -0.07939513 22.19070138 -0.08820688 26.53396964 -0.09329104 C29.25025307 -0.09693719 31.96651815 -0.10317869 34.68279457 -0.11029243 C44.16726616 -0.13478468 53.6516831 -0.14783775 63.13618469 -0.15138245 C71.96297218 -0.1550146 80.7894113 -0.18488749 89.61609238 -0.22678703 C97.20440915 -0.26153922 104.79261077 -0.27693176 112.38100654 -0.27762848 C116.90859641 -0.2784198 121.43583153 -0.28709108 125.96333885 -0.31562614 C130.22592597 -0.34189056 134.4878664 -0.34396574 138.75049782 -0.3279705 C140.30888408 -0.32616247 141.86730824 -0.33278813 143.4256134 -0.34878922 C152.20156236 -0.43335794 159.94006227 -0.16774051 167.23994446 5.27415466 C173.98461383 12.43549255 175.78499179 18.9200251 175.61103821 28.69212341 C174.96161731 34.96074408 172.84916419 39.74910331 168.30244446 44.14915466 C162.61399505 48.63096329 157.78207753 50.51981544 150.47988892 50.54830933 C149.47951034 50.55616434 149.47951034 50.55616434 148.45892209 50.56417805 C146.23132729 50.57914117 144.00396295 50.57988238 141.77632141 50.58055115 C140.17606216 50.58817528 138.57580656 50.59660321 136.97555542 50.60577393 C132.63233627 50.62770446 128.28918753 50.63651621 123.94591928 50.64160037 C121.22963584 50.64524652 118.51337077 50.65148802 115.79709435 50.65860176 C106.31262275 50.68309401 96.82820582 50.69614707 87.34370422 50.69969177 C78.51691673 50.70332392 69.69047762 50.73319682 60.86379653 50.77509636 C53.27547977 50.80984854 45.68727814 50.82524109 38.09888238 50.82593781 C33.57129251 50.82672913 29.04405739 50.83540041 24.51655006 50.86393547 C20.25396295 50.89019988 15.99202252 50.89227506 11.7293911 50.87627983 C10.17100483 50.8744718 8.61258068 50.88109746 7.05427551 50.89709854 C-1.72167345 50.98166727 -9.46017336 50.71604984 -16.76005554 45.27415466 C-23.50472492 38.11281678 -25.30510287 31.62828422 -25.13114929 21.85618591 C-24.48172839 15.58756525 -22.36927527 10.79920602 -17.82255554 6.39915466 C-12.13410613 1.91734604 -7.30218862 0.02849389 0 0 Z " fill="#000000" transform="translate(924.7600555419922,949.7258453369141)"/>
<path d="M0 0 C1.00037858 -0.00785502 1.00037858 -0.00785502 2.02096683 -0.01586872 C4.24856162 -0.03083185 6.47592597 -0.03157306 8.7035675 -0.03224182 C10.30382676 -0.03986595 11.90408236 -0.04829389 13.5043335 -0.0574646 C17.84755264 -0.07939513 22.19070138 -0.08820688 26.53396964 -0.09329104 C29.25025307 -0.09693719 31.96651815 -0.10317869 34.68279457 -0.11029243 C44.16726616 -0.13478468 53.6516831 -0.14783775 63.13618469 -0.15138245 C71.96297218 -0.1550146 80.7894113 -0.18488749 89.61609238 -0.22678703 C97.20440915 -0.26153922 104.79261077 -0.27693176 112.38100654 -0.27762848 C116.90859641 -0.2784198 121.43583153 -0.28709108 125.96333885 -0.31562614 C130.22592597 -0.34189056 134.4878664 -0.34396574 138.75049782 -0.3279705 C140.30888408 -0.32616247 141.86730824 -0.33278813 143.4256134 -0.34878922 C152.20156236 -0.43335794 159.94006227 -0.16774051 167.23994446 5.27415466 C173.98461383 12.43549255 175.78499179 18.9200251 175.61103821 28.69212341 C174.96161731 34.96074408 172.84916419 39.74910331 168.30244446 44.14915466 C162.61399505 48.63096329 157.78207753 50.51981544 150.47988892 50.54830933 C149.47951034 50.55616434 149.47951034 50.55616434 148.45892209 50.56417805 C146.23132729 50.57914117 144.00396295 50.57988238 141.77632141 50.58055115 C140.17606216 50.58817528 138.57580656 50.59660321 136.97555542 50.60577393 C132.63233627 50.62770446 128.28918753 50.63651621 123.94591928 50.64160037 C121.22963584 50.64524652 118.51337077 50.65148802 115.79709435 50.65860176 C106.31262275 50.68309401 96.82820582 50.69614707 87.34370422 50.69969177 C78.51691673 50.70332392 69.69047762 50.73319682 60.86379653 50.77509636 C53.27547977 50.80984854 45.68727814 50.82524109 38.09888238 50.82593781 C33.57129251 50.82672913 29.04405739 50.83540041 24.51655006 50.86393547 C20.25396295 50.89019988 15.99202252 50.89227506 11.7293911 50.87627983 C10.17100483 50.8744718 8.61258068 50.88109746 7.05427551 50.89709854 C-1.72167345 50.98166727 -9.46017336 50.71604984 -16.76005554 45.27415466 C-23.50472492 38.11281678 -25.30510287 31.62828422 -25.13114929 21.85618591 C-24.48172839 15.58756525 -22.36927527 10.79920602 -17.82255554 6.39915466 C-12.13410613 1.91734604 -7.30218862 0.02849389 0 0 Z " fill="#000000" transform="translate(924.7600555419922,649.7258453369141)"/>
<path d="M0 0 C0.95163528 -0.00997513 1.90327057 -0.01995026 2.88374329 -0.03022766 C3.91604065 -0.03089233 4.94833801 -0.03155701 6.01191711 -0.03224182 C7.10849136 -0.04056534 8.20506561 -0.04888885 9.33486938 -0.0574646 C12.96073458 -0.08156251 16.58641977 -0.0903374 20.21235657 -0.09693909 C22.73716282 -0.10590686 25.26196852 -0.11502873 27.78677368 -0.1242981 C33.08189009 -0.14079101 38.37693926 -0.14852142 43.67207336 -0.15138245 C49.77235026 -0.1550116 55.87212216 -0.18486576 61.97224492 -0.22678703 C67.85995988 -0.26581532 73.74747654 -0.27697805 79.63530922 -0.2781086 C82.13067674 -0.28230482 84.62604492 -0.29471492 87.12132835 -0.31562614 C90.6204553 -0.34261101 94.1182065 -0.3376921 97.61738586 -0.32521057 C98.63956207 -0.34004486 99.66173828 -0.35487915 100.71488953 -0.37016296 C107.77205396 -0.29881455 113.27787557 1.23731336 119.13813782 5.27415466 C125.90537283 12.39329222 127.682589 18.95351481 127.50923157 28.69212341 C126.85981067 34.96074408 124.74735755 39.74910331 120.20063782 44.14915466 C115.30597028 48.00555939 110.61379976 50.51250142 104.27627563 50.54830933 C103.32464035 50.55828445 102.37300507 50.56825958 101.39253235 50.57853699 C100.36023499 50.57920166 99.32793762 50.57986633 98.26435852 50.58055115 C97.16778427 50.58887466 96.07121002 50.59719818 94.94140625 50.60577393 C91.31554105 50.62987184 87.68985586 50.63864673 84.06391907 50.64524841 C81.53911282 50.65421618 79.01430711 50.66333806 76.48950195 50.67260742 C71.19438554 50.68910034 65.89933637 50.69683075 60.60420227 50.69969177 C54.50392538 50.70332093 48.40415348 50.73317508 42.30403072 50.77509636 C36.41631575 50.81412465 30.52879909 50.82528738 24.64096642 50.82641792 C22.14559889 50.83061415 19.65023071 50.84302424 17.15494728 50.86393547 C13.65582033 50.89092034 10.15806914 50.88600142 6.65888977 50.8735199 C5.63671356 50.88835419 4.61453735 50.90318848 3.56138611 50.91847229 C-3.49577833 50.84712387 -9.00159993 49.31099597 -14.86186218 45.27415466 C-21.6290972 38.1550171 -23.40631336 31.59479452 -23.23295593 21.85618591 C-22.58353503 15.58756525 -20.47108191 10.79920602 -15.92436218 6.39915466 C-11.02969465 2.54274994 -6.33752412 0.0358079 0 0 Z " fill="#000000" transform="translate(1122.8618621826172,249.72584533691406)"/>
<path d="M0 0 C6.35881994 3.68142207 10.14464271 9.12499844 12.5 16 C12.77415466 18.96366882 12.77415466 18.96366882 12.80639648 22.28393555 C12.82238388 23.5326091 12.83837128 24.78128265 12.85484314 26.0677948 C12.86122243 27.4240986 12.86661435 28.78040735 12.87109375 30.13671875 C12.88007171 31.540513 12.88919375 32.94430633 12.89845276 34.34809875 C12.91491752 37.28929968 12.92263769 40.23038717 12.92553711 43.17163086 C12.93090463 46.91623675 12.96852565 50.65975551 13.01428127 54.4040556 C13.04422875 57.30483249 13.05126453 60.20535381 13.05226326 63.10627174 C13.05643416 64.48522712 13.06874087 65.86418551 13.08978081 67.24298668 C13.2101939 75.81966166 12.67909736 82.89661977 7.5 90 C0.35037352 96.75097237 -6.15517834 98.54488164 -15.91796875 98.37109375 C-22.18658942 97.72167285 -26.97494865 95.60921973 -31.375 91.0625 C-35.70112935 85.57164352 -37.73788919 80.77095385 -37.80639648 73.71606445 C-37.82238388 72.4673909 -37.83837128 71.21871735 -37.85484314 69.9322052 C-37.86122243 68.5759014 -37.86661435 67.21959265 -37.87109375 65.86328125 C-37.88007171 64.459487 -37.88919375 63.05569367 -37.89845276 61.65190125 C-37.91491752 58.71070032 -37.92263769 55.76961283 -37.92553711 52.82836914 C-37.93090463 49.08376325 -37.96852565 45.34024449 -38.01428127 41.5959444 C-38.04422875 38.69516751 -38.05126453 35.79464619 -38.05226326 32.89372826 C-38.05643416 31.51477288 -38.06874087 30.13581449 -38.08978081 28.75701332 C-38.2101939 20.18033834 -37.67909736 13.10338023 -32.5 6 C-23.54823399 -2.45262689 -11.57157865 -5.21511208 0 0 Z " fill="#000000" transform="translate(837.5,1227)"/>
<path d="M0 0 C6.35881994 3.68142207 10.14464271 9.12499844 12.5 16 C12.77415466 18.96366882 12.77415466 18.96366882 12.80639648 22.28393555 C12.82238388 23.5326091 12.83837128 24.78128265 12.85484314 26.0677948 C12.86122243 27.4240986 12.86661435 28.78040735 12.87109375 30.13671875 C12.88007171 31.540513 12.88919375 32.94430633 12.89845276 34.34809875 C12.91491752 37.28929968 12.92263769 40.23038717 12.92553711 43.17163086 C12.93090463 46.91623675 12.96852565 50.65975551 13.01428127 54.4040556 C13.04422875 57.30483249 13.05126453 60.20535381 13.05226326 63.10627174 C13.05643416 64.48522712 13.06874087 65.86418551 13.08978081 67.24298668 C13.2101939 75.81966166 12.67909736 82.89661977 7.5 90 C0.35037352 96.75097237 -6.15517834 98.54488164 -15.91796875 98.37109375 C-22.18658942 97.72167285 -26.97494865 95.60921973 -31.375 91.0625 C-35.70112935 85.57164352 -37.73788919 80.77095385 -37.80639648 73.71606445 C-37.82238388 72.4673909 -37.83837128 71.21871735 -37.85484314 69.9322052 C-37.86122243 68.5759014 -37.86661435 67.21959265 -37.87109375 65.86328125 C-37.88007171 64.459487 -37.88919375 63.05569367 -37.89845276 61.65190125 C-37.91491752 58.71070032 -37.92263769 55.76961283 -37.92553711 52.82836914 C-37.93090463 49.08376325 -37.96852565 45.34024449 -38.01428127 41.5959444 C-38.04422875 38.69516751 -38.05126453 35.79464619 -38.05226326 32.89372826 C-38.05643416 31.51477288 -38.06874087 30.13581449 -38.08978081 28.75701332 C-38.2101939 20.18033834 -37.67909736 13.10338023 -32.5 6 C-23.54823399 -2.45262689 -11.57157865 -5.21511208 0 0 Z " fill="#000000" transform="translate(712.5,1227)"/>
<path d="M0 0 C6.35881994 3.68142207 10.14464271 9.12499844 12.5 16 C12.77415466 18.96366882 12.77415466 18.96366882 12.80639648 22.28393555 C12.82238388 23.5326091 12.83837128 24.78128265 12.85484314 26.0677948 C12.86122243 27.4240986 12.86661435 28.78040735 12.87109375 30.13671875 C12.88007171 31.540513 12.88919375 32.94430633 12.89845276 34.34809875 C12.91491752 37.28929968 12.92263769 40.23038717 12.92553711 43.17163086 C12.93090463 46.91623675 12.96852565 50.65975551 13.01428127 54.4040556 C13.04422875 57.30483249 13.05126453 60.20535381 13.05226326 63.10627174 C13.05643416 64.48522712 13.06874087 65.86418551 13.08978081 67.24298668 C13.2101939 75.81966166 12.67909736 82.89661977 7.5 90 C0.35037352 96.75097237 -6.15517834 98.54488164 -15.91796875 98.37109375 C-22.18658942 97.72167285 -26.97494865 95.60921973 -31.375 91.0625 C-35.70112935 85.57164352 -37.73788919 80.77095385 -37.80639648 73.71606445 C-37.82238388 72.4673909 -37.83837128 71.21871735 -37.85484314 69.9322052 C-37.86122243 68.5759014 -37.86661435 67.21959265 -37.87109375 65.86328125 C-37.88007171 64.459487 -37.88919375 63.05569367 -37.89845276 61.65190125 C-37.91491752 58.71070032 -37.92263769 55.76961283 -37.92553711 52.82836914 C-37.93090463 49.08376325 -37.96852565 45.34024449 -38.01428127 41.5959444 C-38.04422875 38.69516751 -38.05126453 35.79464619 -38.05226326 32.89372826 C-38.05643416 31.51477288 -38.06874087 30.13581449 -38.08978081 28.75701332 C-38.2101939 20.18033834 -37.67909736 13.10338023 -32.5 6 C-23.54823399 -2.45262689 -11.57157865 -5.21511208 0 0 Z " fill="#000000" transform="translate(587.5,1227)"/>
<path d="M0 0 C6.35881994 3.68142207 10.14464271 9.12499844 12.5 16 C12.77415466 18.96366882 12.77415466 18.96366882 12.80639648 22.28393555 C12.82238388 23.5326091 12.83837128 24.78128265 12.85484314 26.0677948 C12.86122243 27.4240986 12.86661435 28.78040735 12.87109375 30.13671875 C12.88007171 31.540513 12.88919375 32.94430633 12.89845276 34.34809875 C12.91491752 37.28929968 12.92263769 40.23038717 12.92553711 43.17163086 C12.93090463 46.91623675 12.96852565 50.65975551 13.01428127 54.4040556 C13.04422875 57.30483249 13.05126453 60.20535381 13.05226326 63.10627174 C13.05643416 64.48522712 13.06874087 65.86418551 13.08978081 67.24298668 C13.2101939 75.81966166 12.67909736 82.89661977 7.5 90 C0.35037352 96.75097237 -6.15517834 98.54488164 -15.91796875 98.37109375 C-22.18658942 97.72167285 -26.97494865 95.60921973 -31.375 91.0625 C-35.70112935 85.57164352 -37.73788919 80.77095385 -37.80639648 73.71606445 C-37.82238388 72.4673909 -37.83837128 71.21871735 -37.85484314 69.9322052 C-37.86122243 68.5759014 -37.86661435 67.21959265 -37.87109375 65.86328125 C-37.88007171 64.459487 -37.88919375 63.05569367 -37.89845276 61.65190125 C-37.91491752 58.71070032 -37.92263769 55.76961283 -37.92553711 52.82836914 C-37.93090463 49.08376325 -37.96852565 45.34024449 -38.01428127 41.5959444 C-38.04422875 38.69516751 -38.05126453 35.79464619 -38.05226326 32.89372826 C-38.05643416 31.51477288 -38.06874087 30.13581449 -38.08978081 28.75701332 C-38.2101939 20.18033834 -37.67909736 13.10338023 -32.5 6 C-23.54823399 -2.45262689 -11.57157865 -5.21511208 0 0 Z " fill="#000000" transform="translate(462.5,1227)"/>
<path d="M0 0 C6.35881994 3.68142207 10.14464271 9.12499844 12.5 16 C12.77415466 18.96366882 12.77415466 18.96366882 12.80639648 22.28393555 C12.82238388 23.5326091 12.83837128 24.78128265 12.85484314 26.0677948 C12.86122243 27.4240986 12.86661435 28.78040735 12.87109375 30.13671875 C12.88007171 31.540513 12.88919375 32.94430633 12.89845276 34.34809875 C12.91491752 37.28929968 12.92263769 40.23038717 12.92553711 43.17163086 C12.93090463 46.91623675 12.96852565 50.65975551 13.01428127 54.4040556 C13.04422875 57.30483249 13.05126453 60.20535381 13.05226326 63.10627174 C13.05643416 64.48522712 13.06874087 65.86418551 13.08978081 67.24298668 C13.2101939 75.81966166 12.67909736 82.89661977 7.5 90 C0.35037352 96.75097237 -6.15517834 98.54488164 -15.91796875 98.37109375 C-22.18658942 97.72167285 -26.97494865 95.60921973 -31.375 91.0625 C-35.70112935 85.57164352 -37.73788919 80.77095385 -37.80639648 73.71606445 C-37.82238388 72.4673909 -37.83837128 71.21871735 -37.85484314 69.9322052 C-37.86122243 68.5759014 -37.86661435 67.21959265 -37.87109375 65.86328125 C-37.88007171 64.459487 -37.88919375 63.05569367 -37.89845276 61.65190125 C-37.91491752 58.71070032 -37.92263769 55.76961283 -37.92553711 52.82836914 C-37.93090463 49.08376325 -37.96852565 45.34024449 -38.01428127 41.5959444 C-38.04422875 38.69516751 -38.05126453 35.79464619 -38.05226326 32.89372826 C-38.05643416 31.51477288 -38.06874087 30.13581449 -38.08978081 28.75701332 C-38.2101939 20.18033834 -37.67909736 13.10338023 -32.5 6 C-23.54823399 -2.45262689 -11.57157865 -5.21511208 0 0 Z " fill="#000000" transform="translate(337.5,1227)"/>
<path d="M0 0 C6.35881994 3.68142207 10.14464271 9.12499844 12.5 16 C12.77415466 18.96366882 12.77415466 18.96366882 12.80639648 22.28393555 C12.82238388 23.5326091 12.83837128 24.78128265 12.85484314 26.0677948 C12.86122243 27.4240986 12.86661435 28.78040735 12.87109375 30.13671875 C12.88007171 31.540513 12.88919375 32.94430633 12.89845276 34.34809875 C12.91491752 37.28929968 12.92263769 40.23038717 12.92553711 43.17163086 C12.93090463 46.91623675 12.96852565 50.65975551 13.01428127 54.4040556 C13.04422875 57.30483249 13.05126453 60.20535381 13.05226326 63.10627174 C13.05643416 64.48522712 13.06874087 65.86418551 13.08978081 67.24298668 C13.2101939 75.81966166 12.67909736 82.89661977 7.5 90 C0.35037352 96.75097237 -6.15517834 98.54488164 -15.91796875 98.37109375 C-22.18658942 97.72167285 -26.97494865 95.60921973 -31.375 91.0625 C-35.70112935 85.57164352 -37.73788919 80.77095385 -37.80639648 73.71606445 C-37.82238388 72.4673909 -37.83837128 71.21871735 -37.85484314 69.9322052 C-37.86122243 68.5759014 -37.86661435 67.21959265 -37.87109375 65.86328125 C-37.88007171 64.459487 -37.88919375 63.05569367 -37.89845276 61.65190125 C-37.91491752 58.71070032 -37.92263769 55.76961283 -37.92553711 52.82836914 C-37.93090463 49.08376325 -37.96852565 45.34024449 -38.01428127 41.5959444 C-38.04422875 38.69516751 -38.05126453 35.79464619 -38.05226326 32.89372826 C-38.05643416 31.51477288 -38.06874087 30.13581449 -38.08978081 28.75701332 C-38.2101939 20.18033834 -37.67909736 13.10338023 -32.5 6 C-23.54823399 -2.45262689 -11.57157865 -5.21511208 0 0 Z " fill="#000000" transform="translate(837.5,927)"/>
<path d="M0 0 C6.35881994 3.68142207 10.14464271 9.12499844 12.5 16 C12.77415466 18.96366882 12.77415466 18.96366882 12.80639648 22.28393555 C12.82238388 23.5326091 12.83837128 24.78128265 12.85484314 26.0677948 C12.86122243 27.4240986 12.86661435 28.78040735 12.87109375 30.13671875 C12.88007171 31.540513 12.88919375 32.94430633 12.89845276 34.34809875 C12.91491752 37.28929968 12.92263769 40.23038717 12.92553711 43.17163086 C12.93090463 46.91623675 12.96852565 50.65975551 13.01428127 54.4040556 C13.04422875 57.30483249 13.05126453 60.20535381 13.05226326 63.10627174 C13.05643416 64.48522712 13.06874087 65.86418551 13.08978081 67.24298668 C13.2101939 75.81966166 12.67909736 82.89661977 7.5 90 C0.35037352 96.75097237 -6.15517834 98.54488164 -15.91796875 98.37109375 C-22.18658942 97.72167285 -26.97494865 95.60921973 -31.375 91.0625 C-35.70112935 85.57164352 -37.73788919 80.77095385 -37.80639648 73.71606445 C-37.82238388 72.4673909 -37.83837128 71.21871735 -37.85484314 69.9322052 C-37.86122243 68.5759014 -37.86661435 67.21959265 -37.87109375 65.86328125 C-37.88007171 64.459487 -37.88919375 63.05569367 -37.89845276 61.65190125 C-37.91491752 58.71070032 -37.92263769 55.76961283 -37.92553711 52.82836914 C-37.93090463 49.08376325 -37.96852565 45.34024449 -38.01428127 41.5959444 C-38.04422875 38.69516751 -38.05126453 35.79464619 -38.05226326 32.89372826 C-38.05643416 31.51477288 -38.06874087 30.13581449 -38.08978081 28.75701332 C-38.2101939 20.18033834 -37.67909736 13.10338023 -32.5 6 C-23.54823399 -2.45262689 -11.57157865 -5.21511208 0 0 Z " fill="#000000" transform="translate(712.5,927)"/>
<path d="M0 0 C6.35881994 3.68142207 10.14464271 9.12499844 12.5 16 C12.77415466 18.96366882 12.77415466 18.96366882 12.80639648 22.28393555 C12.82238388 23.5326091 12.83837128 24.78128265 12.85484314 26.0677948 C12.86122243 27.4240986 12.86661435 28.78040735 12.87109375 30.13671875 C12.88007171 31.540513 12.88919375 32.94430633 12.89845276 34.34809875 C12.91491752 37.28929968 12.92263769 40.23038717 12.92553711 43.17163086 C12.93090463 46.91623675 12.96852565 50.65975551 13.01428127 54.4040556 C13.04422875 57.30483249 13.05126453 60.20535381 13.05226326 63.10627174 C13.05643416 64.48522712 13.06874087 65.86418551 13.08978081 67.24298668 C13.2101939 75.81966166 12.67909736 82.89661977 7.5 90 C0.35037352 96.75097237 -6.15517834 98.54488164 -15.91796875 98.37109375 C-22.18658942 97.72167285 -26.97494865 95.60921973 -31.375 91.0625 C-35.70112935 85.57164352 -37.73788919 80.77095385 -37.80639648 73.71606445 C-37.82238388 72.4673909 -37.83837128 71.21871735 -37.85484314 69.9322052 C-37.86122243 68.5759014 -37.86661435 67.21959265 -37.87109375 65.86328125 C-37.88007171 64.459487 -37.88919375 63.05569367 -37.89845276 61.65190125 C-37.91491752 58.71070032 -37.92263769 55.76961283 -37.92553711 52.82836914 C-37.93090463 49.08376325 -37.96852565 45.34024449 -38.01428127 41.5959444 C-38.04422875 38.69516751 -38.05126453 35.79464619 -38.05226326 32.89372826 C-38.05643416 31.51477288 -38.06874087 30.13581449 -38.08978081 28.75701332 C-38.2101939 20.18033834 -37.67909736 13.10338023 -32.5 6 C-23.54823399 -2.45262689 -11.57157865 -5.21511208 0 0 Z " fill="#000000" transform="translate(587.5,927)"/>
<path d="M0 0 C6.35881994 3.68142207 10.14464271 9.12499844 12.5 16 C12.77415466 18.96366882 12.77415466 18.96366882 12.80639648 22.28393555 C12.82238388 23.5326091 12.83837128 24.78128265 12.85484314 26.0677948 C12.86122243 27.4240986 12.86661435 28.78040735 12.87109375 30.13671875 C12.88007171 31.540513 12.88919375 32.94430633 12.89845276 34.34809875 C12.91491752 37.28929968 12.92263769 40.23038717 12.92553711 43.17163086 C12.93090463 46.91623675 12.96852565 50.65975551 13.01428127 54.4040556 C13.04422875 57.30483249 13.05126453 60.20535381 13.05226326 63.10627174 C13.05643416 64.48522712 13.06874087 65.86418551 13.08978081 67.24298668 C13.2101939 75.81966166 12.67909736 82.89661977 7.5 90 C0.35037352 96.75097237 -6.15517834 98.54488164 -15.91796875 98.37109375 C-22.18658942 97.72167285 -26.97494865 95.60921973 -31.375 91.0625 C-35.70112935 85.57164352 -37.73788919 80.77095385 -37.80639648 73.71606445 C-37.82238388 72.4673909 -37.83837128 71.21871735 -37.85484314 69.9322052 C-37.86122243 68.5759014 -37.86661435 67.21959265 -37.87109375 65.86328125 C-37.88007171 64.459487 -37.88919375 63.05569367 -37.89845276 61.65190125 C-37.91491752 58.71070032 -37.92263769 55.76961283 -37.92553711 52.82836914 C-37.93090463 49.08376325 -37.96852565 45.34024449 -38.01428127 41.5959444 C-38.04422875 38.69516751 -38.05126453 35.79464619 -38.05226326 32.89372826 C-38.05643416 31.51477288 -38.06874087 30.13581449 -38.08978081 28.75701332 C-38.2101939 20.18033834 -37.67909736 13.10338023 -32.5 6 C-23.54823399 -2.45262689 -11.57157865 -5.21511208 0 0 Z " fill="#000000" transform="translate(462.5,927)"/>
<path d="M0 0 C6.35881994 3.68142207 10.14464271 9.12499844 12.5 16 C12.77415466 18.96366882 12.77415466 18.96366882 12.80639648 22.28393555 C12.82238388 23.5326091 12.83837128 24.78128265 12.85484314 26.0677948 C12.86122243 27.4240986 12.86661435 28.78040735 12.87109375 30.13671875 C12.88007171 31.540513 12.88919375 32.94430633 12.89845276 34.34809875 C12.91491752 37.28929968 12.92263769 40.23038717 12.92553711 43.17163086 C12.93090463 46.91623675 12.96852565 50.65975551 13.01428127 54.4040556 C13.04422875 57.30483249 13.05126453 60.20535381 13.05226326 63.10627174 C13.05643416 64.48522712 13.06874087 65.86418551 13.08978081 67.24298668 C13.2101939 75.81966166 12.67909736 82.89661977 7.5 90 C0.35037352 96.75097237 -6.15517834 98.54488164 -15.91796875 98.37109375 C-22.18658942 97.72167285 -26.97494865 95.60921973 -31.375 91.0625 C-35.70112935 85.57164352 -37.73788919 80.77095385 -37.80639648 73.71606445 C-37.82238388 72.4673909 -37.83837128 71.21871735 -37.85484314 69.9322052 C-37.86122243 68.5759014 -37.86661435 67.21959265 -37.87109375 65.86328125 C-37.88007171 64.459487 -37.88919375 63.05569367 -37.89845276 61.65190125 C-37.91491752 58.71070032 -37.92263769 55.76961283 -37.92553711 52.82836914 C-37.93090463 49.08376325 -37.96852565 45.34024449 -38.01428127 41.5959444 C-38.04422875 38.69516751 -38.05126453 35.79464619 -38.05226326 32.89372826 C-38.05643416 31.51477288 -38.06874087 30.13581449 -38.08978081 28.75701332 C-38.2101939 20.18033834 -37.67909736 13.10338023 -32.5 6 C-23.54823399 -2.45262689 -11.57157865 -5.21511208 0 0 Z " fill="#000000" transform="translate(337.5,927)"/>
<path d="M0 0 C6.35881994 3.68142207 10.14464271 9.12499844 12.5 16 C12.77415466 18.96366882 12.77415466 18.96366882 12.80639648 22.28393555 C12.82238388 23.5326091 12.83837128 24.78128265 12.85484314 26.0677948 C12.86122243 27.4240986 12.86661435 28.78040735 12.87109375 30.13671875 C12.88007171 31.540513 12.88919375 32.94430633 12.89845276 34.34809875 C12.91491752 37.28929968 12.92263769 40.23038717 12.92553711 43.17163086 C12.93090463 46.91623675 12.96852565 50.65975551 13.01428127 54.4040556 C13.04422875 57.30483249 13.05126453 60.20535381 13.05226326 63.10627174 C13.05643416 64.48522712 13.06874087 65.86418551 13.08978081 67.24298668 C13.2101939 75.81966166 12.67909736 82.89661977 7.5 90 C0.35037352 96.75097237 -6.15517834 98.54488164 -15.91796875 98.37109375 C-22.18658942 97.72167285 -26.97494865 95.60921973 -31.375 91.0625 C-35.70112935 85.57164352 -37.73788919 80.77095385 -37.80639648 73.71606445 C-37.82238388 72.4673909 -37.83837128 71.21871735 -37.85484314 69.9322052 C-37.86122243 68.5759014 -37.86661435 67.21959265 -37.87109375 65.86328125 C-37.88007171 64.459487 -37.88919375 63.05569367 -37.89845276 61.65190125 C-37.91491752 58.71070032 -37.92263769 55.76961283 -37.92553711 52.82836914 C-37.93090463 49.08376325 -37.96852565 45.34024449 -38.01428127 41.5959444 C-38.04422875 38.69516751 -38.05126453 35.79464619 -38.05226326 32.89372826 C-38.05643416 31.51477288 -38.06874087 30.13581449 -38.08978081 28.75701332 C-38.2101939 20.18033834 -37.67909736 13.10338023 -32.5 6 C-23.54823399 -2.45262689 -11.57157865 -5.21511208 0 0 Z " fill="#000000" transform="translate(837.5,627)"/>
<path d="M0 0 C6.35881994 3.68142207 10.14464271 9.12499844 12.5 16 C12.77415466 18.96366882 12.77415466 18.96366882 12.80639648 22.28393555 C12.82238388 23.5326091 12.83837128 24.78128265 12.85484314 26.0677948 C12.86122243 27.4240986 12.86661435 28.78040735 12.87109375 30.13671875 C12.88007171 31.540513 12.88919375 32.94430633 12.89845276 34.34809875 C12.91491752 37.28929968 12.92263769 40.23038717 12.92553711 43.17163086 C12.93090463 46.91623675 12.96852565 50.65975551 13.01428127 54.4040556 C13.04422875 57.30483249 13.05126453 60.20535381 13.05226326 63.10627174 C13.05643416 64.48522712 13.06874087 65.86418551 13.08978081 67.24298668 C13.2101939 75.81966166 12.67909736 82.89661977 7.5 90 C0.35037352 96.75097237 -6.15517834 98.54488164 -15.91796875 98.37109375 C-22.18658942 97.72167285 -26.97494865 95.60921973 -31.375 91.0625 C-35.70112935 85.57164352 -37.73788919 80.77095385 -37.80639648 73.71606445 C-37.82238388 72.4673909 -37.83837128 71.21871735 -37.85484314 69.9322052 C-37.86122243 68.5759014 -37.86661435 67.21959265 -37.87109375 65.86328125 C-37.88007171 64.459487 -37.88919375 63.05569367 -37.89845276 61.65190125 C-37.91491752 58.71070032 -37.92263769 55.76961283 -37.92553711 52.82836914 C-37.93090463 49.08376325 -37.96852565 45.34024449 -38.01428127 41.5959444 C-38.04422875 38.69516751 -38.05126453 35.79464619 -38.05226326 32.89372826 C-38.05643416 31.51477288 -38.06874087 30.13581449 -38.08978081 28.75701332 C-38.2101939 20.18033834 -37.67909736 13.10338023 -32.5 6 C-23.54823399 -2.45262689 -11.57157865 -5.21511208 0 0 Z " fill="#000000" transform="translate(712.5,627)"/>
<path d="M0 0 C6.35881994 3.68142207 10.14464271 9.12499844 12.5 16 C12.77415466 18.96366882 12.77415466 18.96366882 12.80639648 22.28393555 C12.82238388 23.5326091 12.83837128 24.78128265 12.85484314 26.0677948 C12.86122243 27.4240986 12.86661435 28.78040735 12.87109375 30.13671875 C12.88007171 31.540513 12.88919375 32.94430633 12.89845276 34.34809875 C12.91491752 37.28929968 12.92263769 40.23038717 12.92553711 43.17163086 C12.93090463 46.91623675 12.96852565 50.65975551 13.01428127 54.4040556 C13.04422875 57.30483249 13.05126453 60.20535381 13.05226326 63.10627174 C13.05643416 64.48522712 13.06874087 65.86418551 13.08978081 67.24298668 C13.2101939 75.81966166 12.67909736 82.89661977 7.5 90 C0.35037352 96.75097237 -6.15517834 98.54488164 -15.91796875 98.37109375 C-22.18658942 97.72167285 -26.97494865 95.60921973 -31.375 91.0625 C-35.70112935 85.57164352 -37.73788919 80.77095385 -37.80639648 73.71606445 C-37.82238388 72.4673909 -37.83837128 71.21871735 -37.85484314 69.9322052 C-37.86122243 68.5759014 -37.86661435 67.21959265 -37.87109375 65.86328125 C-37.88007171 64.459487 -37.88919375 63.05569367 -37.89845276 61.65190125 C-37.91491752 58.71070032 -37.92263769 55.76961283 -37.92553711 52.82836914 C-37.93090463 49.08376325 -37.96852565 45.34024449 -38.01428127 41.5959444 C-38.04422875 38.69516751 -38.05126453 35.79464619 -38.05226326 32.89372826 C-38.05643416 31.51477288 -38.06874087 30.13581449 -38.08978081 28.75701332 C-38.2101939 20.18033834 -37.67909736 13.10338023 -32.5 6 C-23.54823399 -2.45262689 -11.57157865 -5.21511208 0 0 Z " fill="#000000" transform="translate(587.5,627)"/>
<path d="M0 0 C6.35881994 3.68142207 10.14464271 9.12499844 12.5 16 C12.77415466 18.96366882 12.77415466 18.96366882 12.80639648 22.28393555 C12.82238388 23.5326091 12.83837128 24.78128265 12.85484314 26.0677948 C12.86122243 27.4240986 12.86661435 28.78040735 12.87109375 30.13671875 C12.88007171 31.540513 12.88919375 32.94430633 12.89845276 34.34809875 C12.91491752 37.28929968 12.92263769 40.23038717 12.92553711 43.17163086 C12.93090463 46.91623675 12.96852565 50.65975551 13.01428127 54.4040556 C13.04422875 57.30483249 13.05126453 60.20535381 13.05226326 63.10627174 C13.05643416 64.48522712 13.06874087 65.86418551 13.08978081 67.24298668 C13.2101939 75.81966166 12.67909736 82.89661977 7.5 90 C0.35037352 96.75097237 -6.15517834 98.54488164 -15.91796875 98.37109375 C-22.18658942 97.72167285 -26.97494865 95.60921973 -31.375 91.0625 C-35.70112935 85.57164352 -37.73788919 80.77095385 -37.80639648 73.71606445 C-37.82238388 72.4673909 -37.83837128 71.21871735 -37.85484314 69.9322052 C-37.86122243 68.5759014 -37.86661435 67.21959265 -37.87109375 65.86328125 C-37.88007171 64.459487 -37.88919375 63.05569367 -37.89845276 61.65190125 C-37.91491752 58.71070032 -37.92263769 55.76961283 -37.92553711 52.82836914 C-37.93090463 49.08376325 -37.96852565 45.34024449 -38.01428127 41.5959444 C-38.04422875 38.69516751 -38.05126453 35.79464619 -38.05226326 32.89372826 C-38.05643416 31.51477288 -38.06874087 30.13581449 -38.08978081 28.75701332 C-38.2101939 20.18033834 -37.67909736 13.10338023 -32.5 6 C-23.54823399 -2.45262689 -11.57157865 -5.21511208 0 0 Z " fill="#000000" transform="translate(462.5,627)"/>
<path d="M0 0 C6.35881994 3.68142207 10.14464271 9.12499844 12.5 16 C12.77415466 18.96366882 12.77415466 18.96366882 12.80639648 22.28393555 C12.82238388 23.5326091 12.83837128 24.78128265 12.85484314 26.0677948 C12.86122243 27.4240986 12.86661435 28.78040735 12.87109375 30.13671875 C12.88007171 31.540513 12.88919375 32.94430633 12.89845276 34.34809875 C12.91491752 37.28929968 12.92263769 40.23038717 12.92553711 43.17163086 C12.93090463 46.91623675 12.96852565 50.65975551 13.01428127 54.4040556 C13.04422875 57.30483249 13.05126453 60.20535381 13.05226326 63.10627174 C13.05643416 64.48522712 13.06874087 65.86418551 13.08978081 67.24298668 C13.2101939 75.81966166 12.67909736 82.89661977 7.5 90 C0.35037352 96.75097237 -6.15517834 98.54488164 -15.91796875 98.37109375 C-22.18658942 97.72167285 -26.97494865 95.60921973 -31.375 91.0625 C-35.70112935 85.57164352 -37.73788919 80.77095385 -37.80639648 73.71606445 C-37.82238388 72.4673909 -37.83837128 71.21871735 -37.85484314 69.9322052 C-37.86122243 68.5759014 -37.86661435 67.21959265 -37.87109375 65.86328125 C-37.88007171 64.459487 -37.88919375 63.05569367 -37.89845276 61.65190125 C-37.91491752 58.71070032 -37.92263769 55.76961283 -37.92553711 52.82836914 C-37.93090463 49.08376325 -37.96852565 45.34024449 -38.01428127 41.5959444 C-38.04422875 38.69516751 -38.05126453 35.79464619 -38.05226326 32.89372826 C-38.05643416 31.51477288 -38.06874087 30.13581449 -38.08978081 28.75701332 C-38.2101939 20.18033834 -37.67909736 13.10338023 -32.5 6 C-23.54823399 -2.45262689 -11.57157865 -5.21511208 0 0 Z " fill="#000000" transform="translate(337.5,627)"/>
</svg>
