<?xml version="1.0" encoding="UTF-8"?>
<svg version="1.1" xmlns="http://www.w3.org/2000/svg" width="500" height="500">
<path d="M0 0 C11.68201914 5.58006418 22.68358755 8.43914279 35.58834839 9.31341553 C39.22221787 9.5640707 42.85098839 9.87291842 46.47998047 10.18554688 C47.19596909 10.24710968 47.9119577 10.30867249 48.64964294 10.37210083 C58.14955361 11.22116086 67.46434604 12.84588699 76.76123047 14.95898438 C78.00791504 15.24128906 78.00791504 15.24128906 79.27978516 15.52929688 C90.41043002 18.13295649 101.42475839 20.88044183 107.88232422 31.18554688 C109.79275243 35.04036647 110.20434427 38.10959969 109.19873047 42.30664062 C106.69323672 49.54349086 102.38439017 56.04398006 95.81591797 60.18554688 C86.93787978 64.03149864 75.72913109 61.75778721 66.40576172 61.04882812 C63.8178997 60.86158341 61.23000809 60.6747473 58.64208984 60.48828125 C54.61132451 60.1950391 50.58090269 59.89774135 46.55102539 59.5925293 C26.14968943 57.88828748 26.14968943 57.88828748 5.76123047 58.95898438 C30.67159209 70.06817802 52.68949407 72.79890527 79.63623047 69.20898438 C80.83570313 69.05220215 82.03517578 68.89541992 83.27099609 68.73388672 C97.95254465 66.62467802 110.63725308 62.91806763 121.51123047 52.52148438 C130.52972666 44.08712459 142.81630948 38.40618234 155.26904297 38.70898438 C161.96868161 39.38104844 166.37987263 41.78101602 170.76123047 46.95898438 C172.31599736 50.06851817 172.04767483 52.52165198 171.76123047 55.95898438 C169.76123047 59.39648437 169.76123047 59.39648437 167.76123047 61.95898438 C168.91296402 64.42698484 169.80906612 66.00682003 171.76123047 67.95898438 C172.2864329 72.51073874 172.02496253 75.62005224 169.18310547 79.31835938 C168.71388672 79.85976563 168.24466797 80.40117187 167.76123047 80.95898438 C167.20951172 81.60351562 166.65779297 82.24804688 166.08935547 82.91210938 C158.9984971 90.55264668 150.35135871 96.15976789 141.76123047 101.95898438 C140.69259766 102.68214844 139.62396484 103.4053125 138.52294922 104.15039062 C136.61526939 105.42820052 134.70127073 106.69663241 132.78076172 107.95507812 C130.54385811 109.43959501 128.34186647 110.94864909 126.14794922 112.49414062 C125.51324707 112.93419434 124.87854492 113.37424805 124.22460938 113.82763672 C123.01765273 114.66503459 121.8172217 115.51198064 120.62597656 116.37158203 C110.55471986 123.29256097 99.02433347 125.82125014 87.11669922 127.52929688 C85.73527605 127.73796281 84.35403871 127.94786212 82.97297668 128.15890503 C79.36253198 128.7069113 75.74965354 129.23678954 72.13598633 129.76306152 C69.24965379 130.18655568 66.36538323 130.6231777 63.48110771 131.06042862 C50.08879901 133.09034875 36.68392318 135.03143947 23.24951172 136.76367188 C22.30794724 136.88807648 21.36638275 137.01248108 20.39628601 137.14065552 C-1.08628633 139.82078029 -17.27536717 132.03407221 -36.29199219 122.85791016 C-42.4007838 119.9125015 -48.5400989 117.03159088 -54.67706299 114.14547729 C-56.80389815 113.14524816 -58.93027133 112.14404132 -61.05664062 111.14282227 C-71.00212009 106.46303295 -80.9583437 101.80642535 -90.94113159 97.20669556 C-92.45222237 96.50942498 -93.96228552 95.8099223 -95.47122192 95.10800171 C-105.68815807 90.35904634 -115.47238824 86.2048936 -126.73876953 84.83398438 C-133.05379843 84.05146992 -133.05379843 84.05146992 -135.23876953 82.95898438 C-135.23876953 54.24898437 -135.23876953 25.53898437 -135.23876953 -4.04101562 C-116.47902494 -9.90343581 -116.47902494 -9.90343581 -107.36376953 -11.72851562 C-105.82245361 -12.03921997 -105.82245361 -12.03921997 -104.25 -12.35620117 C-67.11939062 -19.63144201 -34.02045764 -16.46242736 0 0 Z " fill="#231F20" transform="translate(208.23876953125,345.041015625)"/>
<path d="M0 0 C1.86688477 -0.0009668 1.86688477 -0.0009668 3.77148438 -0.00195312 C5.07279297 0.01802734 6.37410156 0.03800781 7.71484375 0.05859375 C9.02001953 0.05150391 10.32519531 0.04441406 11.66992188 0.03710938 C18.85844485 0.08555458 18.85844485 0.08555458 21.65234375 0.49609375 C23.69665808 3.56256524 24.12457414 5.19003123 24.72265625 8.75 C24.89667969 9.76900391 25.07070313 10.78800781 25.25 11.83789062 C25.42402344 12.90072266 25.59804688 13.96355469 25.77734375 15.05859375 C26.04998047 16.65864258 26.04998047 16.65864258 26.328125 18.29101562 C27.65234375 26.1516976 27.65234375 26.1516976 27.65234375 28.49609375 C28.98272824 28.84100825 30.31691436 29.17125957 31.65234375 29.49609375 C32.76609375 29.77453125 32.76609375 29.77453125 33.90234375 30.05859375 C40.35317195 31.36926512 40.35317195 31.36926512 46.25976562 29.35400391 C47.7755886 27.74716985 49.09345878 26.08767933 50.40234375 24.30859375 C50.85738281 23.73044922 51.31242188 23.15230469 51.78125 22.55664062 C53.82757646 19.9471321 55.7628804 17.33050985 57.60546875 14.5703125 C59.65234375 12.49609375 59.65234375 12.49609375 62.36328125 11.8828125 C66.96405647 12.74067676 70.34001582 14.85118161 74.27734375 17.30859375 C75.02757812 17.76041016 75.7778125 18.21222656 76.55078125 18.67773438 C78.60292812 19.92394058 80.63101016 21.20067881 82.65234375 22.49609375 C83.4825 23.02203125 84.31265625 23.54796875 85.16796875 24.08984375 C86.65234375 25.49609375 86.65234375 25.49609375 86.77734375 29.18359375 C85.94150002 34.68926004 83.78552999 39.79740928 81.64892578 44.91088867 C80.09826643 48.68857647 80.09826643 48.68857647 79.74609375 52.70703125 C80.96132924 55.10607372 82.42741778 56.85510049 84.27734375 58.80859375 C84.92960938 59.52660156 85.581875 60.24460938 86.25390625 60.984375 C88.64053592 62.79769126 88.64053592 62.79769126 91.91796875 62.41796875 C96.76975626 61.22024715 101.24987048 59.46584218 105.8671875 57.58007812 C112.92057673 54.79513572 112.92057673 54.79513572 116.65234375 55.49609375 C118.171875 56.97265625 118.171875 56.97265625 119.46484375 59.12109375 C119.95726562 59.93320313 120.4496875 60.7453125 120.95703125 61.58203125 C121.51648438 62.54367188 122.0759375 63.5053125 122.65234375 64.49609375 C123.38248503 65.67679052 124.11434892 66.85642324 124.84765625 68.03515625 C125.59688134 69.27102831 126.344285 70.50800646 127.08984375 71.74609375 C127.45634033 72.33600098 127.82283691 72.9259082 128.20043945 73.53369141 C129.72704872 76.14430759 130.64579426 78.09300252 130.6953125 81.140625 C129.26425731 84.37255864 127.32551772 85.79493489 124.52734375 87.93359375 C123.53992188 88.71605469 122.5525 89.49851562 121.53515625 90.3046875 C119.82710403 91.60308492 118.09916546 92.87698587 116.33203125 94.09375 C114.44230649 95.467052 112.99614596 96.58375983 111.65234375 98.49609375 C111.18792851 101.72913829 111.69052491 104.39745059 112.65234375 107.49609375 C112.94625 108.70136719 113.24015625 109.90664062 113.54296875 111.1484375 C115.24845845 114.59582063 115.24845845 114.59582063 117.87744141 115.3503418 C120.7579726 115.91329089 123.60974111 116.30192229 126.52734375 116.62109375 C136.46076927 117.79352141 136.46076927 117.79352141 140.8125 120.359375 C143.69490565 125.27354004 143.33771882 129.9694387 143.21484375 135.55859375 C143.22580078 136.64720703 143.23675781 137.73582031 143.24804688 138.85742188 C143.17473589 146.79944561 143.17473589 146.79944561 140.95581055 149.75854492 C138.29281435 151.76729361 136.51095057 152.25142158 133.23046875 152.76171875 C131.69326172 153.01308594 131.69326172 153.01308594 130.125 153.26953125 C129.06152344 153.42679688 127.99804688 153.5840625 126.90234375 153.74609375 C125.82339844 153.91882813 124.74445313 154.0915625 123.6328125 154.26953125 C120.9745898 154.69296496 118.31493206 155.10121299 115.65234375 155.49609375 C112.68999479 163.31354979 112.68999479 163.31354979 111.65234375 171.49609375 C113.47358585 173.79447633 114.91630375 175.27073961 117.15234375 177.05859375 C117.70245117 177.52821533 118.25255859 177.99783691 118.81933594 178.48168945 C120.41530131 179.83910444 122.03235894 181.16754026 123.65234375 182.49609375 C125.07140209 183.72249848 126.48865793 184.95099992 127.90234375 186.18359375 C128.80984375 186.94671875 129.71734375 187.70984375 130.65234375 188.49609375 C130.07591388 192.16461477 129.09040678 194.87075661 127.21875 198.0703125 C126.49268555 199.31844727 126.49268555 199.31844727 125.75195312 200.59179688 C125.24470703 201.44708984 124.73746094 202.30238281 124.21484375 203.18359375 C123.71146484 204.05048828 123.20808594 204.91738281 122.68945312 205.81054688 C118.94081884 212.20761866 118.94081884 212.20761866 116.65234375 214.49609375 C109.94229391 214.16240478 104.51235253 212.08452644 98.38867188 209.4921875 C94.42069719 207.89583195 91.71533757 206.87784151 87.65234375 208.49609375 C85.31588306 210.092674 85.31588306 210.092674 83.27734375 212.18359375 C82.56835938 212.84746094 81.859375 213.51132812 81.12890625 214.1953125 C79.39242727 216.42437259 79.39242727 216.42437259 79.734375 219.23046875 C81.08267681 224.02698071 82.80085373 228.65126535 84.56835938 233.30664062 C87.16829362 240.3761955 87.16829362 240.3761955 86.65234375 244.49609375 C85.40234375 246.37109375 85.40234375 246.37109375 83.65234375 247.49609375 C81.22587063 247.20862003 80.0025974 246.8635564 78.30078125 245.078125 C77.88054687 244.49417969 77.4603125 243.91023437 77.02734375 243.30859375 C70.84928902 235.75247669 61.74375187 232.32083935 52.65234375 229.49609375 C51.62367188 229.16867187 50.595 228.84125 49.53515625 228.50390625 C33.11264566 223.70004261 15.92374369 221.69649359 -1.09765625 220.49609375 C-15.37163976 219.42291352 -26.54546972 215.54376946 -39.32666016 209.28466797 C-47.78628091 205.18013469 -56.27772623 201.96845738 -65.34765625 199.49609375 C-66.09208984 199.29258301 -66.83652344 199.08907227 -67.60351562 198.87939453 C-79.9659118 195.65178683 -92.12168112 194.98507544 -104.8762207 194.91088867 C-106.07593506 194.89646729 -107.27564941 194.8820459 -108.51171875 194.8671875 C-109.5888916 194.8664624 -110.66606445 194.8657373 -111.77587891 194.86499023 C-113.04890869 194.68238647 -113.04890869 194.68238647 -114.34765625 194.49609375 C-116.34765625 191.49609375 -116.34765625 191.49609375 -116.17504883 189.50415039 C-115.18524658 187.10193042 -114.08920744 186.03853008 -112.109375 184.3671875 C-111.45388672 183.80708984 -110.79839844 183.24699219 -110.12304688 182.66992188 C-109.43404297 182.09693359 -108.74503906 181.52394531 -108.03515625 180.93359375 C-107.35775391 180.35673828 -106.68035156 179.77988281 -105.98242188 179.18554688 C-102.83125625 176.5149109 -99.65588376 173.97726438 -96.34765625 171.49609375 C-97.33765625 166.21609375 -98.32765625 160.93609375 -99.34765625 155.49609375 C-101.04535156 155.21894531 -102.74304688 154.94179688 -104.4921875 154.65625 C-106.71486488 154.29049296 -108.93751998 153.92460052 -111.16015625 153.55859375 C-112.27970703 153.37619141 -113.39925781 153.19378906 -114.55273438 153.00585938 C-116.16245117 152.73999023 -116.16245117 152.73999023 -117.8046875 152.46875 C-118.7944458 152.30640869 -119.7842041 152.14406738 -120.80395508 151.97680664 C-123.34765625 151.49609375 -123.34765625 151.49609375 -126.34765625 150.49609375 C-128.58564474 146.02011678 -127.66723195 139.97372176 -127.72265625 135.05859375 C-127.77873047 133.17817383 -127.77873047 133.17817383 -127.8359375 131.25976562 C-127.85333984 129.46055664 -127.85333984 129.46055664 -127.87109375 127.625 C-127.89091309 126.5222876 -127.91073242 125.4195752 -127.93115234 124.28344727 C-127.34765625 121.49609375 -127.34765625 121.49609375 -125.14624023 119.68603516 C-122.39678052 118.5169811 -119.98739471 117.82680963 -117.046875 117.328125 C-116.07041016 117.15732422 -115.09394531 116.98652344 -114.08789062 116.81054688 C-113.08048828 116.64490234 -112.07308594 116.47925781 -111.03515625 116.30859375 C-110.00841797 116.13134766 -108.98167969 115.95410156 -107.92382812 115.77148438 C-105.3998594 115.33712697 -102.87466503 114.91233315 -100.34765625 114.49609375 C-99.67400964 112.4150069 -99.00898827 110.33112665 -98.34765625 108.24609375 C-97.97640625 107.0859375 -97.60515625 105.92578125 -97.22265625 104.73046875 C-96.1735603 101.41100095 -96.1735603 101.41100095 -96.34765625 97.49609375 C-96.93788574 97.2213623 -97.52811523 96.94663086 -98.13623047 96.66357422 C-101.65167988 94.80765911 -104.47001194 92.20274876 -107.47265625 89.62109375 C-108.10558594 89.09128906 -108.73851562 88.56148438 -109.390625 88.015625 C-109.99777344 87.49613281 -110.60492188 86.97664063 -111.23046875 86.44140625 C-112.05635498 85.73781982 -112.05635498 85.73781982 -112.89892578 85.02001953 C-114.63688992 83.19184761 -115.61051057 81.92668967 -116.34765625 79.49609375 C-114.92503688 75.33230058 -112.53907645 71.6146227 -110.34765625 67.80859375 C-109.76886719 66.73802734 -109.19007813 65.66746094 -108.59375 64.56445312 C-107.72943359 63.03981445 -107.72943359 63.03981445 -106.84765625 61.484375 C-106.05875 60.08505737 -106.05875 60.08505737 -105.25390625 58.6574707 C-103.34765625 56.49609375 -103.34765625 56.49609375 -100.41430664 55.59472656 C-97.3528541 55.49626093 -95.58844853 55.78612834 -92.78125 56.9296875 C-91.96591797 57.24873047 -91.15058594 57.56777344 -90.31054688 57.89648438 C-89.06047852 58.40985352 -89.06047852 58.40985352 -87.78515625 58.93359375 C-86.12021266 59.60649243 -84.4523058 60.27211447 -82.78125 60.9296875 C-82.04962646 61.22931396 -81.31800293 61.52894043 -80.56420898 61.83764648 C-77.98469102 62.60391589 -76.02368743 62.80729836 -73.34765625 62.49609375 C-70.67417133 59.65458158 -70.67417133 59.65458158 -68.34765625 56.49609375 C-67.35765625 55.83609375 -66.36765625 55.17609375 -65.34765625 54.49609375 C-64.46537484 48.93941757 -66.72201154 44.43583486 -68.84765625 39.43359375 C-69.51190566 37.86273365 -70.16842347 36.28857721 -70.81640625 34.7109375 C-71.10966797 34.0212085 -71.40292969 33.33147949 -71.70507812 32.62084961 C-72.49458963 30.01024223 -72.77483728 28.20527096 -72.34765625 25.49609375 C-70.4074707 23.73510742 -70.4074707 23.73510742 -67.7109375 22.1640625 C-66.74091797 21.59365234 -65.77089844 21.02324219 -64.77148438 20.43554688 C-63.74474609 19.85740234 -62.71800781 19.27925781 -61.66015625 18.68359375 C-60.14905273 17.78737305 -60.14905273 17.78737305 -58.60742188 16.87304688 C-49.98037651 11.89042991 -49.98037651 11.89042991 -45.34765625 12.49609375 C-42.84765625 14.69140625 -42.84765625 14.69140625 -40.34765625 17.62109375 C-39.91340332 18.12374756 -39.47915039 18.62640137 -39.03173828 19.14428711 C-37.79193199 20.58483502 -36.56931146 22.04012106 -35.34765625 23.49609375 C-34.47753906 24.48416016 -34.47753906 24.48416016 -33.58984375 25.4921875 C-30.34765625 29.20680804 -30.34765625 29.20680804 -30.34765625 31.49609375 C-26.08300078 31.03254424 -22.19563478 30.21462422 -18.08984375 28.953125 C-17.19894043 28.68089111 -16.30803711 28.40865723 -15.39013672 28.12817383 C-14.71611816 27.9195874 -14.04209961 27.71100098 -13.34765625 27.49609375 C-13.24219482 26.82030273 -13.1367334 26.14451172 -13.02807617 25.44824219 C-12.54225647 22.37885283 -12.03891133 19.31258831 -11.53515625 16.24609375 C-11.36951172 15.18261719 -11.20386719 14.11914062 -11.03320312 13.0234375 C-10.86240234 11.99863281 -10.69160156 10.97382813 -10.515625 9.91796875 C-10.36375732 8.9753418 -10.21188965 8.03271484 -10.05541992 7.06152344 C-8.38621458 1.01115789 -6.14495954 -0.0099482 0 0 Z M-38.34765625 92.49609375 C-38.97929687 93.09679687 -39.6109375 93.6975 -40.26171875 94.31640625 C-51.35288397 105.60301051 -55.20036797 122.17811223 -55.34765625 137.49609375 C-54.1036798 154.71430747 -47.30916482 168.311574 -35.34765625 180.49609375 C-34.73148438 181.13675781 -34.1153125 181.77742188 -33.48046875 182.4375 C-22.34322505 193.12065007 -6.74851425 198.04692251 8.44213867 197.91601562 C26.30049488 197.25498737 42.02362521 189.89046183 54.32714844 176.96533203 C66.15824757 163.84824386 70.65955625 146.99513804 69.82714844 129.57226562 C68.45042553 113.22079685 60.84100794 98.43932222 48.65234375 87.49609375 C21.99386283 66.64087356 -14.72950432 67.82434396 -38.34765625 92.49609375 Z " fill="#231F20" transform="translate(247.34765625,119.50390625)"/>
<path d="M0 0 C1.8951767 1.77246742 3.71390188 3.57601277 5.49609375 5.4609375 C7.07955408 7.08141379 8.75030099 8.49928586 10.5 9.9375 C14.44602916 13.27106344 17.68363568 17.0525866 21 21 C22.10988281 22.26070312 22.10988281 22.26070312 23.2421875 23.546875 C60.0328118 66.09705391 75.14765689 120.72049576 71.80517578 176.23583984 C68.02915278 224.58283376 45.70826548 272.07906757 11 306 C10.34 306 9.68 306 9 306 C8.75765625 305.19175781 8.5153125 304.38351562 8.265625 303.55078125 C5.86571105 295.61133101 5.86571105 295.61133101 1 289 C2.47081893 285.61635438 4.38263673 283.39264338 6.9375 280.75 C38.11577141 246.57381788 53.39514768 197.58871876 51.89794922 151.88476562 C50.16194514 115.51241002 39.55370219 81.186583 19 51 C18.57444824 50.36562012 18.14889648 49.73124023 17.71044922 49.07763672 C6.1491493 32.06150922 -9.00168194 16.61551734 -26 5 C-27.06734375 4.26136719 -28.1346875 3.52273437 -29.234375 2.76171875 C-69.99540375 -24.76235874 -120.18057536 -36.02962956 -168.7890625 -27.51123047 C-187.08078618 -23.9477836 -204.36656487 -18.3859677 -221 -10 C-221.60376465 -9.70399902 -222.2075293 -9.40799805 -222.82958984 -9.10302734 C-237.69322389 -1.79556742 -250.96465735 7.6295934 -263 19 C-264.32941948 20.12962233 -265.66263718 21.25479312 -267 22.375 C-286.50200995 39.49299671 -301.90265356 63.84364179 -311 88 C-311.29213379 88.76828125 -311.58426758 89.5365625 -311.88525391 90.328125 C-328.54377071 134.96406548 -327.97046174 182.75803233 -311.35546875 227.23828125 C-310 231 -310 231 -310 233 C-311.65 233.33 -313.3 233.66 -315 234 C-315.23074219 233.46890625 -315.46148437 232.9378125 -315.69921875 232.390625 C-318.26773845 226.82719103 -320.76911516 223.61544242 -326.375 220.8125 C-329.5541717 219.82847066 -332.70622399 219.44354127 -336 219 C-337.78173252 212.02533668 -339.43046565 205.02536169 -341 198 C-341.1753125 197.23671387 -341.350625 196.47342773 -341.53125 195.68701172 C-346.86506266 171.46816863 -346.4210971 142.14900423 -341 118 C-340.82839355 117.16629883 -340.65678711 116.33259766 -340.47998047 115.47363281 C-332.12027531 74.87788857 -311.88704558 39.44208052 -283 10 C-282.10982178 9.09000244 -282.10982178 9.09000244 -281.20166016 8.16162109 C-251.51292285 -21.8961197 -211.36153369 -40.88403722 -170 -48 C-169.31776367 -48.11859375 -168.63552734 -48.2371875 -167.93261719 -48.359375 C-107.84078074 -58.20377141 -46.07155508 -38.92676846 0 0 Z " fill="#231F20" transform="translate(387,91)"/>
<path d="M0 0 C1.21945313 -0.020625 2.43890625 -0.04125 3.6953125 -0.0625 C4.87609375 -0.06765625 6.056875 -0.0728125 7.2734375 -0.078125 C8.34770996 -0.0874707 9.42198242 -0.09681641 10.52880859 -0.10644531 C14.21190472 0.3175667 16.52683323 1.21486987 19.625 3.25 C22.43922216 8.02306375 21.91303502 13.38028303 21.8996582 18.74414062 C21.90476913 19.79997849 21.90988007 20.85581635 21.91514587 21.94364929 C21.92903795 25.43124063 21.92808556 28.9186343 21.92578125 32.40625 C21.92966796 34.83093337 21.93400258 37.25561605 21.93876648 39.68029785 C21.94622756 44.76100879 21.94593788 49.84165023 21.94067383 54.92236328 C21.9348749 61.43598524 21.95182124 67.94932325 21.9750185 74.46289825 C21.989742 79.46943833 21.99062949 84.47590976 21.98750877 89.48246765 C21.98802253 91.88425764 21.99327045 94.28605142 22.00332069 96.68782043 C22.01564264 100.04402194 22.00891883 103.39966693 21.99731445 106.75585938 C22.00878006 108.24595772 22.00878006 108.24595772 22.02047729 109.76615906 C21.95511024 118.30981583 21.95511024 118.30981583 18.625 122.25 C13.68285108 125.54476594 7.79080068 124.6609528 2.00146484 124.67553711 C-0.23581763 124.68742464 -2.47033169 124.73660008 -4.70703125 124.78710938 C-6.13540325 124.79657549 -7.56379214 124.80380963 -8.9921875 124.80859375 C-10.93520752 124.82877563 -10.93520752 124.82877563 -12.91748047 124.84936523 C-17.47152781 124.05991556 -18.63113723 122.96789144 -21.375 119.25 C-22.11444165 115.59612541 -22.04782772 111.9984492 -22.00610352 108.28100586 C-22.01325882 107.17479385 -22.02041412 106.06858185 -22.02778625 104.92884827 C-22.04468964 101.27375955 -22.0252606 97.61989434 -22.00390625 93.96484375 C-22.00473473 91.42566323 -22.00719331 88.88648277 -22.01121521 86.3473053 C-22.01407429 81.02684971 -21.99988907 75.70682716 -21.97192383 70.38647461 C-21.93985665 64.23838655 -21.93989493 58.09093269 -21.9571386 51.94279951 C-21.97300908 46.02299142 -21.96617033 40.10337773 -21.94920158 34.18356514 C-21.94401248 31.6665251 -21.94451036 29.14946679 -21.95074654 26.63242912 C-21.95618589 23.11775048 -21.93586329 19.60415491 -21.90844727 16.08959961 C-21.91497314 15.04585175 -21.92149902 14.00210388 -21.92822266 12.92672729 C-21.83458928 5.88102916 -21.83458928 5.88102916 -19.45851135 2.61860657 C-13.78420448 -1.10870389 -6.53772747 0.02746944 0 0 Z " fill="#252223" transform="translate(39.375,321.75)"/>
</svg>
